XYZ_Retorica.ufo
<glyph name="exclam" format="2">
  <advance width="999"/>
  <unicode hex="0021"/>
  <outline>
    <contour>
      <point x="480" y="0" type="line"/>
      <point x="520" y="0" type="line"/>
      <point x="520" y="186" type="line"/>
      <point x="480" y="186" type="line"/>
    </contour>
    <contour>
      <point x="480" y="333" type="line"/>
      <point x="520" y="333" type="line"/>
      <point x="520" y="666" type="line"/>
      <point x="480" y="666" type="line"/>
    </contour>
    <contour>
      <point x="480" y="666" type="line"/>
      <point x="520" y="666" type="line"/>
      <point x="520" y="999" type="line"/>
      <point x="480" y="999" type="line"/>
    </contour>
  </outline>
</glyph>
<glyph name="comma" format="2">
  <advance width="999"/>
  <unicode hex="002C"/>
  <outline>
    <contour>
      <point x="480" y="0" type="line"/>
      <point x="520" y="0" type="line"/>
      <point x="520" y="333" type="line"/>
      <point x="480" y="333" type="line"/>
    </contour>
  </outline>
</glyph>
<glyph name="hyphen" format="2">
  <advance width="999"/>
  <unicode hex="002D"/>
  <outline>
    <contour>
      <point x="333" y="480" type="line"/>
      <point x="666" y="480" type="line"/>
      <point x="666" y="520" type="line"/>
      <point x="333" y="520" type="line"/>
    </contour>
  </outline>
</glyph>
<glyph name="period" format="2">
  <advance width="999"/>
  <unicode hex="002E"/>
  <outline>
    <contour>
      <point x="480" y="146" type="line"/>
      <point x="520" y="146" type="line"/>
      <point x="520" y="333" type="line"/>
      <point x="480" y="333" type="line"/>
    </contour>
  </outline>
</glyph>
<glyph name="zero" format="2">
  <advance width="1332"/>
  <unicode hex="0030"/>
  <outline>
    <contour>
      <point x="480" y="333" type="line"/>
      <point x="480" y="229"/>
      <point x="562" y="146"/>
      <point x="666" y="146" type="curve"/>
      <point x="666" y="186" type="line"/>
      <point x="584" y="186"/>
      <point x="520" y="251"/>
      <point x="520" y="333" type="curve"/>
    </contour>
    <contour>
      <point x="666" y="146" type="line"/>
      <point x="852" y="146" type="line"/>
      <point x="852" y="186" type="line"/>
      <point x="666" y="186" type="line"/>
    </contour>
    <contour>
      <point x="812" y="146" type="line"/>
      <point x="852" y="146" type="line"/>
      <point x="852" y="333" type="line"/>
      <point x="812" y="333" type="line"/>
    </contour>
    <contour>
      <point x="480" y="333" type="line"/>
      <point x="520" y="333" type="line"/>
      <point x="520" y="666" type="line"/>
      <point x="480" y="666" type="line"/>
    </contour>
    <contour>
      <point x="812" y="333" type="line"/>
      <point x="852" y="333" type="line"/>
      <point x="852" y="666" type="line"/>
      <point x="812" y="666" type="line"/>
    </contour>
    <contour>
      <point x="480" y="666" type="curve"/>
      <point x="520" y="666" type="line"/>
      <point x="520" y="748"/>
      <point x="584" y="812"/>
      <point x="666" y="812" type="curve"/>
      <point x="666" y="852" type="line"/>
      <point x="562" y="852"/>
      <point x="480" y="770"/>
    </contour>
    <contour>
      <point x="852" y="666" type="line"/>
      <point x="852" y="770"/>
      <point x="770" y="852"/>
      <point x="666" y="852" type="curve"/>
      <point x="666" y="812" type="line"/>
      <point x="748" y="812"/>
      <point x="812" y="748"/>
      <point x="812" y="666" type="curve"/>
    </contour>
  </outline>
</glyph>
<glyph name="colon" format="2">
  <advance width="999"/>
  <unicode hex="003A"/>
  <outline>
    <contour>
      <point x="480" y="146" type="line"/>
      <point x="520" y="146" type="line"/>
      <point x="520" y="333" type="line"/>
      <point x="480" y="333" type="line"/>
    </contour>
    <contour>
      <point x="480" y="480" type="line"/>
      <point x="520" y="480" type="line"/>
      <point x="520" y="666" type="line"/>
      <point x="480" y="666" type="line"/>
    </contour>
  </outline>
</glyph>
<glyph name="semicolon" format="2">
  <advance width="999"/>
  <unicode hex="003B"/>
  <outline>
    <contour>
      <point x="480" y="0" type="line"/>
      <point x="520" y="0" type="line"/>
      <point x="520" y="333" type="line"/>
      <point x="480" y="333" type="line"/>
    </contour>
    <contour>
      <point x="480" y="480" type="line"/>
      <point x="520" y="480" type="line"/>
      <point x="520" y="666" type="line"/>
      <point x="480" y="666" type="line"/>
    </contour>
  </outline>
</glyph>
<glyph name="question" format="2">
  <advance width="1665"/>
  <unicode hex="003F"/>
  <outline>
    <contour>
      <point x="812" y="0" type="line"/>
      <point x="852" y="0" type="line"/>
      <point x="852" y="186" type="line"/>
      <point x="812" y="186" type="line"/>
    </contour>
    <contour>
      <point x="812" y="333" type="curve"/>
      <point x="852" y="333" type="line"/>
      <point x="852" y="415"/>
      <point x="917" y="480"/>
      <point x="999" y="480" type="curve"/>
      <point x="999" y="520" type="line"/>
      <point x="895" y="520"/>
      <point x="812" y="437"/>
    </contour>
    <contour>
      <point x="1186" y="666" type="curve"/>
      <point x="1146" y="666" type="line"/>
      <point x="1146" y="584"/>
      <point x="1081" y="520"/>
      <point x="999" y="520" type="curve"/>
      <point x="999" y="480" type="line"/>
      <point x="1103" y="480"/>
      <point x="1186" y="562"/>
    </contour>
    <contour>
      <point x="480" y="666" type="curve"/>
      <point x="520" y="666" type="line"/>
      <point x="520" y="748"/>
      <point x="584" y="812"/>
      <point x="666" y="812" type="curve"/>
      <point x="666" y="852" type="line"/>
      <point x="562" y="852"/>
      <point x="480" y="770"/>
    </contour>
    <contour>
      <point x="666" y="812" type="line"/>
      <point x="999" y="812" type="line"/>
      <point x="999" y="852" type="line"/>
      <point x="666" y="852" type="line"/>
    </contour>
    <contour>
      <point x="1186" y="666" type="line"/>
      <point x="1186" y="770"/>
      <point x="1103" y="852"/>
      <point x="999" y="852" type="curve"/>
      <point x="999" y="812" type="line"/>
      <point x="1081" y="812"/>
      <point x="1146" y="748"/>
      <point x="1146" y="666" type="curve"/>
    </contour>
  </outline>
</glyph>
<glyph name="B" format="2">
  <advance width="1665"/>
  <unicode hex="0042"/>
  <outline>
    <contour>
      <point x="480" y="146" type="line"/>
      <point x="666" y="146" type="line"/>
      <point x="666" y="186" type="line"/>
      <point x="480" y="186" type="line"/>
    </contour>
    <contour>
      <point x="480" y="146" type="line"/>
      <point x="520" y="146" type="line"/>
      <point x="520" y="333" type="line"/>
      <point x="480" y="333" type="line"/>
    </contour>
    <contour>
      <point x="666" y="146" type="line"/>
      <point x="999" y="146" type="line"/>
      <point x="999" y="186" type="line"/>
      <point x="666" y="186" type="line"/>
    </contour>
    <contour>
      <point x="1186" y="333" type="curve"/>
      <point x="1146" y="333" type="line"/>
      <point x="1146" y="251"/>
      <point x="1081" y="186"/>
      <point x="999" y="186" type="curve"/>
      <point x="999" y="146" type="line"/>
      <point x="1103" y="146"/>
      <point x="1186" y="229"/>
    </contour>
    <contour>
      <point x="480" y="333" type="line"/>
      <point x="520" y="333" type="line"/>
      <point x="520" y="666" type="line"/>
      <point x="480" y="666" type="line"/>
    </contour>
    <contour>
      <point x="480" y="480" type="line"/>
      <point x="666" y="480" type="line"/>
      <point x="666" y="520" type="line"/>
      <point x="480" y="520" type="line"/>
    </contour>
    <contour>
      <point x="666" y="480" type="line"/>
      <point x="999" y="480" type="line"/>
      <point x="999" y="520" type="line"/>
      <point x="666" y="520" type="line"/>
    </contour>
    <contour>
      <point x="1186" y="333" type="line"/>
      <point x="1186" y="437"/>
      <point x="1103" y="520"/>
      <point x="999" y="520" type="curve"/>
      <point x="999" y="480" type="line"/>
      <point x="1081" y="480"/>
      <point x="1146" y="415"/>
      <point x="1146" y="333" type="curve"/>
    </contour>
    <contour>
      <point x="520" y="666" type="line"/>
      <point x="520" y="770"/>
      <point x="437" y="852"/>
      <point x="333" y="852" type="curve"/>
      <point x="333" y="812" type="line"/>
      <point x="415" y="812"/>
      <point x="480" y="748"/>
      <point x="480" y="666" type="curve"/>
    </contour>
  </outline>
</glyph>
<glyph name="F" format="2">
  <advance width="1665"/>
  <unicode hex="0046"/>
  <outline>
    <contour>
      <point x="333" y="146" type="line"/>
      <point x="666" y="146" type="line"/>
      <point x="666" y="186" type="line"/>
      <point x="333" y="186" type="line"/>
    </contour>
    <contour>
      <point x="480" y="146" type="line"/>
      <point x="520" y="146" type="line"/>
      <point x="520" y="333" type="line"/>
      <point x="480" y="333" type="line"/>
    </contour>
    <contour>
      <point x="480" y="333" type="line"/>
      <point x="520" y="333" type="line"/>
      <point x="520" y="666" type="line"/>
      <point x="480" y="666" type="line"/>
    </contour>
    <contour>
      <point x="480" y="480" type="line"/>
      <point x="666" y="480" type="line"/>
      <point x="666" y="520" type="line"/>
      <point x="480" y="520" type="line"/>
    </contour>
    <contour>
      <point x="666" y="480" type="line"/>
      <point x="852" y="480" type="line"/>
      <point x="852" y="520" type="line"/>
      <point x="666" y="520" type="line"/>
    </contour>
    <contour>
      <point x="480" y="666" type="line"/>
      <point x="520" y="666" type="line"/>
      <point x="520" y="683" type="line"/>
      <point x="350" y="852" type="line"/>
      <point x="333" y="852" type="line"/>
      <point x="333" y="812" type="line"/>
    </contour>
    <contour>
      <point x="520" y="666" type="line"/>
      <point x="666" y="812" type="line"/>
      <point x="666" y="852" type="line"/>
      <point x="649" y="852" type="line"/>
      <point x="480" y="683" type="line"/>
      <point x="480" y="666" type="line"/>
    </contour>
    <contour>
      <point x="666" y="812" type="line"/>
      <point x="999" y="812" type="line"/>
      <point x="999" y="852" type="line"/>
      <point x="666" y="852" type="line"/>
    </contour>
    <contour>
      <point x="1186" y="666" type="line"/>
      <point x="1186" y="770"/>
      <point x="1103" y="852"/>
      <point x="999" y="852" type="curve"/>
      <point x="999" y="812" type="line"/>
      <point x="1081" y="812"/>
      <point x="1146" y="748"/>
      <point x="1146" y="666" type="curve"/>
    </contour>
  </outline>
</glyph>
<glyph name="H" format="2">
  <advance width="1665"/>
  <unicode hex="0048"/>
  <outline>
    <contour>
      <point x="520" y="333" type="curve"/>
      <point x="480" y="333" type="line"/>
      <point x="480" y="251"/>
      <point x="415" y="186"/>
      <point x="333" y="186" type="curve"/>
      <point x="333" y="146" type="line"/>
      <point x="437" y="146"/>
      <point x="520" y="229"/>
    </contour>
    <contour>
      <point x="1146" y="333" type="line"/>
      <point x="1146" y="229"/>
      <point x="1228" y="146"/>
      <point x="1332" y="146" type="curve"/>
      <point x="1332" y="186" type="line"/>
      <point x="1250" y="186"/>
      <point x="1186" y="251"/>
      <point x="1186" y="333" type="curve"/>
    </contour>
    <contour>
      <point x="480" y="333" type="line"/>
      <point x="520" y="333" type="line"/>
      <point x="520" y="666" type="line"/>
      <point x="480" y="666" type="line"/>
    </contour>
    <contour>
      <point x="480" y="480" type="line"/>
      <point x="666" y="480" type="line"/>
      <point x="666" y="520" type="line"/>
      <point x="480" y="520" type="line"/>
    </contour>
    <contour>
      <point x="666" y="480" type="line"/>
      <point x="999" y="480" type="line"/>
      <point x="999" y="520" type="line"/>
      <point x="666" y="520" type="line"/>
    </contour>
    <contour>
      <point x="1146" y="333" type="line"/>
      <point x="1186" y="333" type="line"/>
      <point x="1186" y="666" type="line"/>
      <point x="1146" y="666" type="line"/>
    </contour>
    <contour>
      <point x="999" y="480" type="line"/>
      <point x="1186" y="480" type="line"/>
      <point x="1186" y="520" type="line"/>
      <point x="999" y="520" type="line"/>
    </contour>
    <contour>
      <point x="520" y="666" type="line"/>
      <point x="520" y="770"/>
      <point x="437" y="852"/>
      <point x="333" y="852" type="curve"/>
      <point x="333" y="812" type="line"/>
      <point x="415" y="812"/>
      <point x="480" y="748"/>
      <point x="480" y="666" type="curve"/>
    </contour>
    <contour>
      <point x="1146" y="666" type="curve"/>
      <point x="1186" y="666" type="line"/>
      <point x="1186" y="748"/>
      <point x="1250" y="812"/>
      <point x="1332" y="812" type="curve"/>
      <point x="1332" y="852" type="line"/>
      <point x="1228" y="852"/>
      <point x="1146" y="770"/>
    </contour>
  </outline>
</glyph>
<glyph name="I" format="2">
  <advance width="999"/>
  <unicode hex="0049"/>
  <outline>
    <contour>
      <point x="333" y="146" type="line"/>
      <point x="666" y="146" type="line"/>
      <point x="666" y="186" type="line"/>
      <point x="333" y="186" type="line"/>
    </contour>
    <contour>
      <point x="480" y="146" type="line"/>
      <point x="520" y="146" type="line"/>
      <point x="520" y="333" type="line"/>
      <point x="480" y="333" type="line"/>
    </contour>
    <contour>
      <point x="480" y="333" type="line"/>
      <point x="520" y="333" type="line"/>
      <point x="520" y="666" type="line"/>
      <point x="480" y="666" type="line"/>
    </contour>
    <contour>
      <point x="480" y="812" type="line"/>
      <point x="520" y="812" type="line"/>
      <point x="520" y="999" type="line"/>
      <point x="480" y="999" type="line"/>
    </contour>
  </outline>
</glyph>
<glyph name="L" format="2">
  <advance width="1665"/>
  <unicode hex="004C"/>
  <outline>
    <contour>
      <point x="333" y="146" type="line"/>
      <point x="666" y="146" type="line"/>
      <point x="666" y="186" type="line"/>
      <point x="333" y="186" type="line"/>
    </contour>
    <contour>
      <point x="480" y="146" type="line"/>
      <point x="520" y="146" type="line"/>
      <point x="520" y="333" type="line"/>
      <point x="480" y="333" type="line"/>
    </contour>
    <contour>
      <point x="666" y="146" type="line"/>
      <point x="999" y="146" type="line"/>
      <point x="999" y="186" type="line"/>
      <point x="666" y="186" type="line"/>
    </contour>
    <contour>
      <point x="1186" y="333" type="curve"/>
      <point x="1146" y="333" type="line"/>
      <point x="1146" y="251"/>
      <point x="1081" y="186"/>
      <point x="999" y="186" type="curve"/>
      <point x="999" y="146" type="line"/>
      <point x="1103" y="146"/>
      <point x="1186" y="229"/>
    </contour>
    <contour>
      <point x="480" y="333" type="line"/>
      <point x="520" y="333" type="line"/>
      <point x="520" y="666" type="line"/>
      <point x="480" y="666" type="line"/>
    </contour>
    <contour>
      <point x="333" y="812" type="line"/>
      <point x="666" y="812" type="line"/>
      <point x="666" y="852" type="line"/>
      <point x="333" y="852" type="line"/>
    </contour>
    <contour>
      <point x="480" y="666" type="line"/>
      <point x="520" y="666" type="line"/>
      <point x="520" y="852" type="line"/>
      <point x="480" y="852" type="line"/>
    </contour>
    <contour>
      <point x="666" y="812" type="line"/>
      <point x="852" y="812" type="line"/>
      <point x="852" y="852" type="line"/>
      <point x="666" y="852" type="line"/>
    </contour>
  </outline>
</glyph>
<glyph name="V" format="2">
  <advance width="1665"/>
  <unicode hex="0056"/>
  <outline>
    <contour>
      <point x="852" y="333" type="line"/>
      <point x="812" y="333" type="line"/>
      <point x="812" y="316" type="line"/>
      <point x="982" y="146" type="line"/>
      <point x="999" y="146" type="line"/>
      <point x="999" y="186" type="line"/>
    </contour>
    <contour>
      <point x="1146" y="333" type="line"/>
      <point x="999" y="186" type="line"/>
      <point x="999" y="146" type="line"/>
      <point x="1016" y="146" type="line"/>
      <point x="1186" y="316" type="line"/>
      <point x="1186" y="333" type="line"/>
    </contour>
    <contour>
      <point x="480" y="666" type="line"/>
      <point x="480" y="562"/>
      <point x="562" y="480"/>
      <point x="666" y="480" type="curve"/>
      <point x="666" y="520" type="line"/>
      <point x="584" y="520"/>
      <point x="520" y="584"/>
      <point x="520" y="666" type="curve"/>
    </contour>
    <contour>
      <point x="852" y="333" type="line"/>
      <point x="852" y="437"/>
      <point x="770" y="520"/>
      <point x="666" y="520" type="curve"/>
      <point x="666" y="480" type="line"/>
      <point x="748" y="480"/>
      <point x="812" y="415"/>
      <point x="812" y="333" type="curve"/>
    </contour>
    <contour>
      <point x="1146" y="333" type="line"/>
      <point x="1186" y="333" type="line"/>
      <point x="1186" y="666" type="line"/>
      <point x="1146" y="666" type="line"/>
    </contour>
    <contour>
      <point x="520" y="666" type="line"/>
      <point x="520" y="770"/>
      <point x="437" y="852"/>
      <point x="333" y="852" type="curve"/>
      <point x="333" y="812" type="line"/>
      <point x="415" y="812"/>
      <point x="480" y="748"/>
      <point x="480" y="666" type="curve"/>
    </contour>
    <contour>
      <point x="1146" y="666" type="line"/>
      <point x="1186" y="666" type="line"/>
      <point x="1186" y="852" type="line"/>
      <point x="1146" y="852" type="line"/>
    </contour>
  </outline>
</glyph>
<glyph name="X" format="2">
  <advance width="1665"/>
  <unicode hex="0058"/>
  <outline>
    <contour>
      <point x="480" y="146" type="line"/>
      <point x="520" y="146" type="line"/>
      <point x="520" y="333" type="line"/>
      <point x="480" y="333" type="line"/>
    </contour>
    <contour>
      <point x="1146" y="146" type="line"/>
      <point x="1186" y="146" type="line"/>
      <point x="1186" y="333" type="line"/>
      <point x="1146" y="333" type="line"/>
    </contour>
    <contour>
      <point x="520" y="666" type="line"/>
      <point x="480" y="666" type="line"/>
      <point x="480" y="649" type="line"/>
      <point x="649" y="480" type="line"/>
      <point x="666" y="480" type="line"/>
      <point x="666" y="520" type="line"/>
    </contour>
    <contour>
      <point x="520" y="333" type="line"/>
      <point x="666" y="480" type="line"/>
      <point x="666" y="520" type="line"/>
      <point x="649" y="520" type="line"/>
      <point x="480" y="350" type="line"/>
      <point x="480" y="333" type="line"/>
    </contour>
    <contour>
      <point x="666" y="480" type="line"/>
      <point x="999" y="480" type="line"/>
      <point x="999" y="520" type="line"/>
      <point x="666" y="520" type="line"/>
    </contour>
    <contour>
      <point x="1146" y="666" type="line"/>
      <point x="999" y="520" type="line"/>
      <point x="999" y="480" type="line"/>
      <point x="1016" y="480" type="line"/>
      <point x="1186" y="649" type="line"/>
      <point x="1186" y="666" type="line"/>
    </contour>
    <contour>
      <point x="1146" y="333" type="line"/>
      <point x="1186" y="333" type="line"/>
      <point x="1186" y="350" type="line"/>
      <point x="1016" y="520" type="line"/>
      <point x="999" y="520" type="line"/>
      <point x="999" y="480" type="line"/>
    </contour>
    <contour>
      <point x="520" y="666" type="line"/>
      <point x="520" y="770"/>
      <point x="437" y="852"/>
      <point x="333" y="852" type="curve"/>
      <point x="333" y="812" type="line"/>
      <point x="415" y="812"/>
      <point x="480" y="748"/>
      <point x="480" y="666" type="curve"/>
    </contour>
    <contour>
      <point x="1146" y="666" type="curve"/>
      <point x="1186" y="666" type="line"/>
      <point x="1186" y="748"/>
      <point x="1250" y="812"/>
      <point x="1332" y="812" type="curve"/>
      <point x="1332" y="852" type="line"/>
      <point x="1228" y="852"/>
      <point x="1146" y="770"/>
    </contour>
  </outline>
</glyph>
<glyph name="Y" format="2">
  <advance width="1665"/>
  <unicode hex="0059"/>
  <outline>
    <contour>
      <point x="812" y="146" type="line"/>
      <point x="852" y="146" type="line"/>
      <point x="852" y="333" type="line"/>
      <point x="812" y="333" type="line"/>
    </contour>
    <contour>
      <point x="480" y="480" type="line"/>
      <point x="666" y="480" type="line"/>
      <point x="666" y="520" type="line"/>
      <point x="480" y="520" type="line"/>
    </contour>
    <contour>
      <point x="480" y="480" type="line"/>
      <point x="520" y="480" type="line"/>
      <point x="520" y="666" type="line"/>
      <point x="480" y="666" type="line"/>
    </contour>
    <contour>
      <point x="666" y="480" type="line"/>
      <point x="999" y="480" type="line"/>
      <point x="999" y="520" type="line"/>
      <point x="666" y="520" type="line"/>
    </contour>
    <contour>
      <point x="812" y="333" type="line"/>
      <point x="852" y="333" type="line"/>
      <point x="852" y="520" type="line"/>
      <point x="812" y="520" type="line"/>
    </contour>
    <contour>
      <point x="999" y="480" type="line"/>
      <point x="1186" y="480" type="line"/>
      <point x="1186" y="520" type="line"/>
      <point x="999" y="520" type="line"/>
    </contour>
    <contour>
      <point x="1146" y="480" type="line"/>
      <point x="1186" y="480" type="line"/>
      <point x="1186" y="666" type="line"/>
      <point x="1146" y="666" type="line"/>
    </contour>
    <contour>
      <point x="520" y="666" type="line"/>
      <point x="520" y="770"/>
      <point x="437" y="852"/>
      <point x="333" y="852" type="curve"/>
      <point x="333" y="812" type="line"/>
      <point x="415" y="812"/>
      <point x="480" y="748"/>
      <point x="480" y="666" type="curve"/>
    </contour>
    <contour>
      <point x="1146" y="666" type="curve"/>
      <point x="1186" y="666" type="line"/>
      <point x="1186" y="748"/>
      <point x="1250" y="812"/>
      <point x="1332" y="812" type="curve"/>
      <point x="1332" y="852" type="line"/>
      <point x="1228" y="852"/>
      <point x="1146" y="770"/>
    </contour>
  </outline>
</glyph>
<glyph name="Igrave" format="2">
  <advance width="1665"/>
  <unicode hex="00CC"/>
  <outline>
    <contour>
      <point x="666" y="146" type="line"/>
      <point x="999" y="146" type="line"/>
      <point x="999" y="186" type="line"/>
      <point x="666" y="186" type="line"/>
    </contour>
    <contour>
      <point x="812" y="146" type="line"/>
      <point x="852" y="146" type="line"/>
      <point x="852" y="333" type="line"/>
      <point x="812" y="333" type="line"/>
    </contour>
    <contour>
      <point x="666" y="480" type="line"/>
      <point x="852" y="480" type="line"/>
      <point x="852" y="520" type="line"/>
      <point x="666" y="520" type="line"/>
    </contour>
    <contour>
      <point x="812" y="333" type="line"/>
      <point x="852" y="333" type="line"/>
      <point x="852" y="520" type="line"/>
      <point x="812" y="520" type="line"/>
    </contour>
    <contour>
      <point x="520" y="999" type="line"/>
      <point x="480" y="999" type="line"/>
      <point x="480" y="982" type="line"/>
      <point x="649" y="812" type="line"/>
      <point x="666" y="812" type="line"/>
      <point x="666" y="852" type="line"/>
    </contour>
    <contour>
      <point x="666" y="812" type="line"/>
      <point x="999" y="812" type="line"/>
      <point x="999" y="852" type="line"/>
      <point x="666" y="852" type="line"/>
    </contour>
  </outline>
</glyph>
<glyph name="Ograve" format="2">
  <advance width="1665"/>
  <unicode hex="00D2"/>
  <outline>
    <contour>
      <point x="480" y="333" type="line"/>
      <point x="480" y="229"/>
      <point x="562" y="146"/>
      <point x="666" y="146" type="curve"/>
      <point x="666" y="186" type="line"/>
      <point x="584" y="186"/>
      <point x="520" y="251"/>
      <point x="520" y="333" type="curve"/>
    </contour>
    <contour>
      <point x="666" y="146" type="line"/>
      <point x="999" y="146" type="line"/>
      <point x="999" y="186" type="line"/>
      <point x="666" y="186" type="line"/>
    </contour>
    <contour>
      <point x="1186" y="333" type="curve"/>
      <point x="1146" y="333" type="line"/>
      <point x="1146" y="251"/>
      <point x="1081" y="186"/>
      <point x="999" y="186" type="curve"/>
      <point x="999" y="146" type="line"/>
      <point x="1103" y="146"/>
      <point x="1186" y="229"/>
    </contour>
    <contour>
      <point x="480" y="333" type="curve"/>
      <point x="520" y="333" type="line"/>
      <point x="520" y="415"/>
      <point x="584" y="480"/>
      <point x="666" y="480" type="curve"/>
      <point x="666" y="520" type="line"/>
      <point x="562" y="520"/>
      <point x="480" y="437"/>
    </contour>
    <contour>
      <point x="666" y="480" type="line"/>
      <point x="999" y="480" type="line"/>
      <point x="999" y="520" type="line"/>
      <point x="666" y="520" type="line"/>
    </contour>
    <contour>
      <point x="1186" y="333" type="line"/>
      <point x="1186" y="437"/>
      <point x="1103" y="520"/>
      <point x="999" y="520" type="curve"/>
      <point x="999" y="480" type="line"/>
      <point x="1081" y="480"/>
      <point x="1146" y="415"/>
      <point x="1146" y="333" type="curve"/>
    </contour>
    <contour>
      <point x="520" y="999" type="line"/>
      <point x="480" y="999" type="line"/>
      <point x="480" y="982" type="line"/>
      <point x="649" y="812" type="line"/>
      <point x="666" y="812" type="line"/>
      <point x="666" y="852" type="line"/>
    </contour>
    <contour>
      <point x="666" y="812" type="line"/>
      <point x="999" y="812" type="line"/>
      <point x="999" y="852" type="line"/>
      <point x="666" y="852" type="line"/>
    </contour>
  </outline>
</glyph>
<glyph name="C.alt3" format="2">
  <advance width="1665"/>
  <outline>
    <contour>
      <point x="333" y="146" type="line"/>
      <point x="666" y="146" type="line"/>
      <point x="666" y="186" type="line"/>
      <point x="333" y="186" type="line"/>
    </contour>
    <contour>
      <point x="480" y="146" type="line"/>
      <point x="520" y="146" type="line"/>
      <point x="520" y="333" type="line"/>
      <point x="480" y="333" type="line"/>
    </contour>
    <contour>
      <point x="666" y="146" type="line"/>
      <point x="999" y="146" type="line"/>
      <point x="999" y="186" type="line"/>
      <point x="666" y="186" type="line"/>
    </contour>
    <contour>
      <point x="999" y="146" type="line"/>
      <point x="1186" y="146" type="line"/>
      <point x="1186" y="186" type="line"/>
      <point x="999" y="186" type="line"/>
    </contour>
    <contour>
      <point x="1146" y="146" type="line"/>
      <point x="1186" y="146" type="line"/>
      <point x="1186" y="333" type="line"/>
      <point x="1146" y="333" type="line"/>
    </contour>
    <contour>
      <point x="480" y="333" type="line"/>
      <point x="520" y="333" type="line"/>
      <point x="520" y="666" type="line"/>
      <point x="480" y="666" type="line"/>
    </contour>
    <contour>
      <point x="333" y="812" type="line"/>
      <point x="666" y="812" type="line"/>
      <point x="666" y="852" type="line"/>
      <point x="333" y="852" type="line"/>
    </contour>
    <contour>
      <point x="480" y="666" type="line"/>
      <point x="520" y="666" type="line"/>
      <point x="520" y="852" type="line"/>
      <point x="480" y="852" type="line"/>
    </contour>
    <contour>
      <point x="666" y="812" type="line"/>
      <point x="999" y="812" type="line"/>
      <point x="999" y="852" type="line"/>
      <point x="666" y="852" type="line"/>
    </contour>
    <contour>
      <point x="999" y="812" type="line"/>
      <point x="1186" y="812" type="line"/>
      <point x="1186" y="852" type="line"/>
      <point x="999" y="852" type="line"/>
    </contour>
    <contour>
      <point x="1146" y="666" type="line"/>
      <point x="1186" y="666" type="line"/>
      <point x="1186" y="852" type="line"/>
      <point x="1146" y="852" type="line"/>
    </contour>
  </outline>
</glyph>
<glyph name="D.alt1" format="2">
  <advance width="1665"/>
  <outline>
    <contour>
      <point x="480" y="146" type="line"/>
      <point x="666" y="146" type="line"/>
      <point x="666" y="186" type="line"/>
      <point x="480" y="186" type="line"/>
    </contour>
    <contour>
      <point x="480" y="146" type="line"/>
      <point x="520" y="146" type="line"/>
      <point x="520" y="333" type="line"/>
      <point x="480" y="333" type="line"/>
    </contour>
    <contour>
      <point x="666" y="146" type="line"/>
      <point x="999" y="146" type="line"/>
      <point x="999" y="186" type="line"/>
      <point x="666" y="186" type="line"/>
    </contour>
    <contour>
      <point x="1186" y="333" type="curve"/>
      <point x="1146" y="333" type="line"/>
      <point x="1146" y="251"/>
      <point x="1081" y="186"/>
      <point x="999" y="186" type="curve"/>
      <point x="999" y="146" type="line"/>
      <point x="1103" y="146"/>
      <point x="1186" y="229"/>
    </contour>
    <contour>
      <point x="520" y="666" type="line"/>
      <point x="480" y="666" type="line"/>
      <point x="480" y="649" type="line"/>
      <point x="649" y="480" type="line"/>
      <point x="666" y="480" type="line"/>
      <point x="666" y="520" type="line"/>
    </contour>
    <contour>
      <point x="520" y="333" type="line"/>
      <point x="666" y="480" type="line"/>
      <point x="666" y="520" type="line"/>
      <point x="649" y="520" type="line"/>
      <point x="480" y="350" type="line"/>
      <point x="480" y="333" type="line"/>
    </contour>
    <contour>
      <point x="1146" y="333" type="line"/>
      <point x="1186" y="333" type="line"/>
      <point x="1186" y="666" type="line"/>
      <point x="1146" y="666" type="line"/>
    </contour>
    <contour>
      <point x="480" y="812" type="line"/>
      <point x="666" y="812" type="line"/>
      <point x="666" y="852" type="line"/>
      <point x="480" y="852" type="line"/>
    </contour>
    <contour>
      <point x="480" y="666" type="line"/>
      <point x="520" y="666" type="line"/>
      <point x="520" y="852" type="line"/>
      <point x="480" y="852" type="line"/>
    </contour>
    <contour>
      <point x="666" y="812" type="line"/>
      <point x="999" y="812" type="line"/>
      <point x="999" y="852" type="line"/>
      <point x="666" y="852" type="line"/>
    </contour>
    <contour>
      <point x="1186" y="666" type="line"/>
      <point x="1186" y="770"/>
      <point x="1103" y="852"/>
      <point x="999" y="852" type="curve"/>
      <point x="999" y="812" type="line"/>
      <point x="1081" y="812"/>
      <point x="1146" y="748"/>
      <point x="1146" y="666" type="curve"/>
    </contour>
  </outline>
</glyph>
<glyph name="D.alt4" format="2">
  <advance width="1332"/>
  <outline>
    <contour>
      <point x="333" y="146" type="line"/>
      <point x="666" y="146" type="line"/>
      <point x="666" y="186" type="line"/>
      <point x="333" y="186" type="line"/>
    </contour>
    <contour>
      <point x="480" y="146" type="line"/>
      <point x="520" y="146" type="line"/>
      <point x="520" y="333" type="line"/>
      <point x="480" y="333" type="line"/>
    </contour>
    <contour>
      <point x="852" y="333" type="curve"/>
      <point x="812" y="333" type="line"/>
      <point x="812" y="251"/>
      <point x="748" y="186"/>
      <point x="666" y="186" type="curve"/>
      <point x="666" y="146" type="line"/>
      <point x="770" y="146"/>
      <point x="852" y="229"/>
    </contour>
    <contour>
      <point x="480" y="333" type="line"/>
      <point x="520" y="333" type="line"/>
      <point x="520" y="666" type="line"/>
      <point x="480" y="666" type="line"/>
    </contour>
    <contour>
      <point x="852" y="666" type="line"/>
      <point x="812" y="666" type="line"/>
      <point x="812" y="649" type="line"/>
      <point x="982" y="480" type="line"/>
      <point x="999" y="480" type="line"/>
      <point x="999" y="520" type="line"/>
    </contour>
    <contour>
      <point x="852" y="333" type="line"/>
      <point x="999" y="480" type="line"/>
      <point x="999" y="520" type="line"/>
      <point x="982" y="520" type="line"/>
      <point x="812" y="350" type="line"/>
      <point x="812" y="333" type="line"/>
    </contour>
    <contour>
      <point x="333" y="812" type="line"/>
      <point x="666" y="812" type="line"/>
      <point x="666" y="852" type="line"/>
      <point x="333" y="852" type="line"/>
    </contour>
    <contour>
      <point x="480" y="666" type="line"/>
      <point x="520" y="666" type="line"/>
      <point x="520" y="852" type="line"/>
      <point x="480" y="852" type="line"/>
    </contour>
    <contour>
      <point x="852" y="666" type="line"/>
      <point x="852" y="770"/>
      <point x="770" y="852"/>
      <point x="666" y="852" type="curve"/>
      <point x="666" y="812" type="line"/>
      <point x="748" y="812"/>
      <point x="812" y="748"/>
      <point x="812" y="666" type="curve"/>
    </contour>
  </outline>
</glyph>
<glyph name="D.alt5" format="2">
  <advance width="1665"/>
  <outline>
    <contour>
      <point x="480" y="333" type="line"/>
      <point x="480" y="229"/>
      <point x="562" y="146"/>
      <point x="666" y="146" type="curve"/>
      <point x="666" y="186" type="line"/>
      <point x="584" y="186"/>
      <point x="520" y="251"/>
      <point x="520" y="333" type="curve"/>
    </contour>
    <contour>
      <point x="666" y="146" type="line"/>
      <point x="999" y="146" type="line"/>
      <point x="999" y="186" type="line"/>
      <point x="666" y="186" type="line"/>
    </contour>
    <contour>
      <point x="999" y="146" type="line"/>
      <point x="1332" y="146" type="line"/>
      <point x="1332" y="186" type="line"/>
      <point x="999" y="186" type="line"/>
    </contour>
    <contour>
      <point x="1146" y="146" type="line"/>
      <point x="1186" y="146" type="line"/>
      <point x="1186" y="333" type="line"/>
      <point x="1146" y="333" type="line"/>
    </contour>
    <contour>
      <point x="480" y="333" type="curve"/>
      <point x="520" y="333" type="line"/>
      <point x="520" y="415"/>
      <point x="584" y="480"/>
      <point x="666" y="480" type="curve"/>
      <point x="666" y="520" type="line"/>
      <point x="562" y="520"/>
      <point x="480" y="437"/>
    </contour>
    <contour>
      <point x="666" y="480" type="line"/>
      <point x="999" y="480" type="line"/>
      <point x="999" y="520" type="line"/>
      <point x="666" y="520" type="line"/>
    </contour>
    <contour>
      <point x="1146" y="333" type="line"/>
      <point x="1186" y="333" type="line"/>
      <point x="1186" y="666" type="line"/>
      <point x="1146" y="666" type="line"/>
    </contour>
    <contour>
      <point x="999" y="480" type="line"/>
      <point x="1186" y="480" type="line"/>
      <point x="1186" y="520" type="line"/>
      <point x="999" y="520" type="line"/>
    </contour>
    <contour>
      <point x="812" y="812" type="line"/>
      <point x="999" y="812" type="line"/>
      <point x="999" y="852" type="line"/>
      <point x="812" y="852" type="line"/>
    </contour>
    <contour>
      <point x="999" y="812" type="line"/>
      <point x="1186" y="812" type="line"/>
      <point x="1186" y="852" type="line"/>
      <point x="999" y="852" type="line"/>
    </contour>
    <contour>
      <point x="1146" y="666" type="line"/>
      <point x="1186" y="666" type="line"/>
      <point x="1186" y="852" type="line"/>
      <point x="1146" y="852" type="line"/>
    </contour>
  </outline>
</glyph>
<glyph name="E.alt3" format="2">
  <advance width="1665"/>
  <outline>
    <contour>
      <point x="480" y="146" type="line"/>
      <point x="666" y="146" type="line"/>
      <point x="666" y="186" type="line"/>
      <point x="480" y="186" type="line"/>
    </contour>
    <contour>
      <point x="480" y="146" type="line"/>
      <point x="520" y="146" type="line"/>
      <point x="520" y="333" type="line"/>
      <point x="480" y="333" type="line"/>
    </contour>
    <contour>
      <point x="666" y="146" type="line"/>
      <point x="999" y="146" type="line"/>
      <point x="999" y="186" type="line"/>
      <point x="666" y="186" type="line"/>
    </contour>
    <contour>
      <point x="999" y="146" type="line"/>
      <point x="1186" y="146" type="line"/>
      <point x="1186" y="186" type="line"/>
      <point x="999" y="186" type="line"/>
    </contour>
    <contour>
      <point x="480" y="333" type="line"/>
      <point x="520" y="333" type="line"/>
      <point x="520" y="666" type="line"/>
      <point x="480" y="666" type="line"/>
    </contour>
    <contour>
      <point x="480" y="480" type="line"/>
      <point x="666" y="480" type="line"/>
      <point x="666" y="520" type="line"/>
      <point x="480" y="520" type="line"/>
    </contour>
    <contour>
      <point x="666" y="480" type="line"/>
      <point x="999" y="480" type="line"/>
      <point x="999" y="520" type="line"/>
      <point x="666" y="520" type="line"/>
    </contour>
    <contour>
      <point x="1146" y="333" type="line"/>
      <point x="1186" y="333" type="line"/>
      <point x="1186" y="666" type="line"/>
      <point x="1146" y="666" type="line"/>
    </contour>
    <contour>
      <point x="999" y="480" type="line"/>
      <point x="1186" y="480" type="line"/>
      <point x="1186" y="520" type="line"/>
      <point x="999" y="520" type="line"/>
    </contour>
    <contour>
      <point x="480" y="812" type="line"/>
      <point x="666" y="812" type="line"/>
      <point x="666" y="852" type="line"/>
      <point x="480" y="852" type="line"/>
    </contour>
    <contour>
      <point x="480" y="666" type="line"/>
      <point x="520" y="666" type="line"/>
      <point x="520" y="852" type="line"/>
      <point x="480" y="852" type="line"/>
    </contour>
    <contour>
      <point x="666" y="812" type="line"/>
      <point x="999" y="812" type="line"/>
      <point x="999" y="852" type="line"/>
      <point x="666" y="852" type="line"/>
    </contour>
    <contour>
      <point x="999" y="812" type="line"/>
      <point x="1186" y="812" type="line"/>
      <point x="1186" y="852" type="line"/>
      <point x="999" y="852" type="line"/>
    </contour>
  </outline>
</glyph>
<glyph name="F.alt2" format="2">
  <advance width="1665"/>
  <outline>
    <contour>
      <point x="520" y="333" type="curve"/>
      <point x="480" y="333" type="line"/>
      <point x="480" y="251"/>
      <point x="415" y="186"/>
      <point x="333" y="186" type="curve"/>
      <point x="333" y="146" type="line"/>
      <point x="437" y="146"/>
      <point x="520" y="229"/>
    </contour>
    <contour>
      <point x="480" y="333" type="line"/>
      <point x="520" y="333" type="line"/>
      <point x="520" y="666" type="line"/>
      <point x="480" y="666" type="line"/>
    </contour>
    <contour>
      <point x="480" y="480" type="line"/>
      <point x="666" y="480" type="line"/>
      <point x="666" y="520" type="line"/>
      <point x="480" y="520" type="line"/>
    </contour>
    <contour>
      <point x="666" y="480" type="line"/>
      <point x="852" y="480" type="line"/>
      <point x="852" y="520" type="line"/>
      <point x="666" y="520" type="line"/>
    </contour>
    <contour>
      <point x="480" y="666" type="curve"/>
      <point x="520" y="666" type="line"/>
      <point x="520" y="748"/>
      <point x="584" y="812"/>
      <point x="666" y="812" type="curve"/>
      <point x="666" y="852" type="line"/>
      <point x="562" y="852"/>
      <point x="480" y="770"/>
    </contour>
    <contour>
      <point x="666" y="812" type="line"/>
      <point x="999" y="812" type="line"/>
      <point x="999" y="852" type="line"/>
      <point x="666" y="852" type="line"/>
    </contour>
  </outline>
</glyph>
<glyph name="G.alt1" format="2">
  <advance width="1332"/>
  <outline>
    <contour>
      <point x="480" y="333" type="line"/>
      <point x="480" y="229"/>
      <point x="562" y="146"/>
      <point x="666" y="146" type="curve"/>
      <point x="666" y="186" type="line"/>
      <point x="584" y="186"/>
      <point x="520" y="251"/>
      <point x="520" y="333" type="curve"/>
    </contour>
    <contour>
      <point x="852" y="333" type="curve"/>
      <point x="812" y="333" type="line"/>
      <point x="812" y="251"/>
      <point x="748" y="186"/>
      <point x="666" y="186" type="curve"/>
      <point x="666" y="146" type="line"/>
      <point x="770" y="146"/>
      <point x="852" y="229"/>
    </contour>
    <contour>
      <point x="480" y="666" type="line"/>
      <point x="480" y="562"/>
      <point x="562" y="480"/>
      <point x="666" y="480" type="curve"/>
      <point x="666" y="520" type="line"/>
      <point x="584" y="520"/>
      <point x="520" y="584"/>
      <point x="520" y="666" type="curve"/>
    </contour>
    <contour>
      <point x="812" y="666" type="line"/>
      <point x="666" y="520" type="line"/>
      <point x="666" y="480" type="line"/>
      <point x="683" y="480" type="line"/>
      <point x="852" y="649" type="line"/>
      <point x="852" y="666" type="line"/>
    </contour>
    <contour>
      <point x="812" y="333" type="line"/>
      <point x="852" y="333" type="line"/>
      <point x="852" y="350" type="line"/>
      <point x="683" y="520" type="line"/>
      <point x="666" y="520" type="line"/>
      <point x="666" y="480" type="line"/>
    </contour>
    <contour>
      <point x="480" y="666" type="curve"/>
      <point x="520" y="666" type="line"/>
      <point x="520" y="748"/>
      <point x="584" y="812"/>
      <point x="666" y="812" type="curve"/>
      <point x="666" y="852" type="line"/>
      <point x="562" y="852"/>
      <point x="480" y="770"/>
    </contour>
    <contour>
      <point x="666" y="812" type="line"/>
      <point x="852" y="812" type="line"/>
      <point x="852" y="852" type="line"/>
      <point x="666" y="852" type="line"/>
    </contour>
    <contour>
      <point x="812" y="666" type="line"/>
      <point x="852" y="666" type="line"/>
      <point x="852" y="852" type="line"/>
      <point x="812" y="852" type="line"/>
    </contour>
  </outline>
</glyph>
<glyph name="H.alt2" format="2">
  <advance width="1665"/>
  <outline>
    <contour>
      <point x="333" y="146" type="line"/>
      <point x="666" y="146" type="line"/>
      <point x="666" y="186" type="line"/>
      <point x="333" y="186" type="line"/>
    </contour>
    <contour>
      <point x="480" y="146" type="line"/>
      <point x="520" y="146" type="line"/>
      <point x="520" y="333" type="line"/>
      <point x="480" y="333" type="line"/>
    </contour>
    <contour>
      <point x="999" y="146" type="line"/>
      <point x="1332" y="146" type="line"/>
      <point x="1332" y="186" type="line"/>
      <point x="999" y="186" type="line"/>
    </contour>
    <contour>
      <point x="1146" y="146" type="line"/>
      <point x="1186" y="146" type="line"/>
      <point x="1186" y="333" type="line"/>
      <point x="1146" y="333" type="line"/>
    </contour>
    <contour>
      <point x="480" y="333" type="line"/>
      <point x="520" y="333" type="line"/>
      <point x="520" y="666" type="line"/>
      <point x="480" y="666" type="line"/>
    </contour>
    <contour>
      <point x="480" y="480" type="line"/>
      <point x="666" y="480" type="line"/>
      <point x="666" y="520" type="line"/>
      <point x="480" y="520" type="line"/>
    </contour>
    <contour>
      <point x="812" y="333" type="line"/>
      <point x="852" y="333" type="line"/>
      <point x="852" y="350" type="line"/>
      <point x="683" y="520" type="line"/>
      <point x="666" y="520" type="line"/>
      <point x="666" y="480" type="line"/>
    </contour>
    <contour>
      <point x="852" y="333" type="line"/>
      <point x="999" y="480" type="line"/>
      <point x="999" y="520" type="line"/>
      <point x="982" y="520" type="line"/>
      <point x="812" y="350" type="line"/>
      <point x="812" y="333" type="line"/>
    </contour>
    <contour>
      <point x="1146" y="333" type="line"/>
      <point x="1186" y="333" type="line"/>
      <point x="1186" y="666" type="line"/>
      <point x="1146" y="666" type="line"/>
    </contour>
    <contour>
      <point x="999" y="480" type="line"/>
      <point x="1186" y="480" type="line"/>
      <point x="1186" y="520" type="line"/>
      <point x="999" y="520" type="line"/>
    </contour>
    <contour>
      <point x="333" y="812" type="line"/>
      <point x="520" y="812" type="line"/>
      <point x="520" y="852" type="line"/>
      <point x="333" y="852" type="line"/>
    </contour>
    <contour>
      <point x="480" y="666" type="line"/>
      <point x="520" y="666" type="line"/>
      <point x="520" y="852" type="line"/>
      <point x="480" y="852" type="line"/>
    </contour>
    <contour>
      <point x="1146" y="812" type="line"/>
      <point x="1332" y="812" type="line"/>
      <point x="1332" y="852" type="line"/>
      <point x="1146" y="852" type="line"/>
    </contour>
    <contour>
      <point x="1146" y="666" type="line"/>
      <point x="1186" y="666" type="line"/>
      <point x="1186" y="852" type="line"/>
      <point x="1146" y="852" type="line"/>
    </contour>
  </outline>
</glyph>
<glyph name="I.alt1" format="2">
  <advance width="1332"/>
  <outline>
    <contour>
      <point x="480" y="146" type="line"/>
      <point x="520" y="146" type="line"/>
      <point x="520" y="333" type="line"/>
      <point x="480" y="333" type="line"/>
    </contour>
    <contour>
      <point x="480" y="333" type="curve"/>
      <point x="520" y="333" type="line"/>
      <point x="520" y="415"/>
      <point x="584" y="480"/>
      <point x="666" y="480" type="curve"/>
      <point x="666" y="520" type="line"/>
      <point x="562" y="520"/>
      <point x="480" y="437"/>
    </contour>
    <contour>
      <point x="852" y="666" type="curve"/>
      <point x="812" y="666" type="line"/>
      <point x="812" y="584"/>
      <point x="748" y="520"/>
      <point x="666" y="520" type="curve"/>
      <point x="666" y="480" type="line"/>
      <point x="770" y="480"/>
      <point x="852" y="562"/>
    </contour>
    <contour>
      <point x="812" y="666" type="line"/>
      <point x="852" y="666" type="line"/>
      <point x="852" y="852" type="line"/>
      <point x="812" y="852" type="line"/>
    </contour>
  </outline>
</glyph>
<glyph name="I.alt2" format="2">
  <advance width="999"/>
  <outline>
    <contour>
      <point x="520" y="333" type="line"/>
      <point x="480" y="333" type="line"/>
      <point x="480" y="316" type="line"/>
      <point x="649" y="146" type="line"/>
      <point x="666" y="146" type="line"/>
      <point x="666" y="186" type="line"/>
    </contour>
    <contour>
      <point x="520" y="666" type="line"/>
      <point x="480" y="666" type="line"/>
      <point x="480" y="649" type="line"/>
      <point x="649" y="480" type="line"/>
      <point x="666" y="480" type="line"/>
      <point x="666" y="520" type="line"/>
    </contour>
    <contour>
      <point x="520" y="333" type="line"/>
      <point x="666" y="480" type="line"/>
      <point x="666" y="520" type="line"/>
      <point x="649" y="520" type="line"/>
      <point x="480" y="350" type="line"/>
      <point x="480" y="333" type="line"/>
    </contour>
    <contour>
      <point x="520" y="666" type="line"/>
      <point x="666" y="812" type="line"/>
      <point x="666" y="852" type="line"/>
      <point x="649" y="852" type="line"/>
      <point x="480" y="683" type="line"/>
      <point x="480" y="666" type="line"/>
    </contour>
  </outline>
</glyph>
<glyph name="K.alt1" format="2">
  <advance width="1665"/>
  <outline>
    <contour>
      <point x="333" y="146" type="line"/>
      <point x="666" y="146" type="line"/>
      <point x="666" y="186" type="line"/>
      <point x="333" y="186" type="line"/>
    </contour>
    <contour>
      <point x="480" y="146" type="line"/>
      <point x="520" y="146" type="line"/>
      <point x="520" y="333" type="line"/>
      <point x="480" y="333" type="line"/>
    </contour>
    <contour>
      <point x="812" y="333" type="line"/>
      <point x="812" y="229"/>
      <point x="895" y="146"/>
      <point x="999" y="146" type="curve"/>
      <point x="999" y="186" type="line"/>
      <point x="917" y="186"/>
      <point x="852" y="251"/>
      <point x="852" y="333" type="curve"/>
    </contour>
    <contour>
      <point x="999" y="146" type="line"/>
      <point x="1186" y="146" type="line"/>
      <point x="1186" y="186" type="line"/>
      <point x="999" y="186" type="line"/>
    </contour>
    <contour>
      <point x="480" y="333" type="line"/>
      <point x="520" y="333" type="line"/>
      <point x="520" y="666" type="line"/>
      <point x="480" y="666" type="line"/>
    </contour>
    <contour>
      <point x="480" y="480" type="line"/>
      <point x="666" y="480" type="line"/>
      <point x="666" y="520" type="line"/>
      <point x="480" y="520" type="line"/>
    </contour>
    <contour>
      <point x="812" y="666" type="line"/>
      <point x="666" y="520" type="line"/>
      <point x="666" y="480" type="line"/>
      <point x="683" y="480" type="line"/>
      <point x="852" y="649" type="line"/>
      <point x="852" y="666" type="line"/>
    </contour>
    <contour>
      <point x="812" y="333" type="line"/>
      <point x="852" y="333" type="line"/>
      <point x="852" y="350" type="line"/>
      <point x="683" y="520" type="line"/>
      <point x="666" y="520" type="line"/>
      <point x="666" y="480" type="line"/>
    </contour>
    <contour>
      <point x="333" y="812" type="line"/>
      <point x="666" y="812" type="line"/>
      <point x="666" y="852" type="line"/>
      <point x="333" y="852" type="line"/>
    </contour>
    <contour>
      <point x="480" y="666" type="line"/>
      <point x="520" y="666" type="line"/>
      <point x="520" y="852" type="line"/>
      <point x="480" y="852" type="line"/>
    </contour>
    <contour>
      <point x="812" y="666" type="curve"/>
      <point x="852" y="666" type="line"/>
      <point x="852" y="748"/>
      <point x="917" y="812"/>
      <point x="999" y="812" type="curve"/>
      <point x="999" y="852" type="line"/>
      <point x="895" y="852"/>
      <point x="812" y="770"/>
    </contour>
    <contour>
      <point x="999" y="812" type="line"/>
      <point x="1186" y="812" type="line"/>
      <point x="1186" y="852" type="line"/>
      <point x="999" y="852" type="line"/>
    </contour>
  </outline>
</glyph>
<glyph name="K.alt2" format="2">
  <advance width="1998"/>
  <outline>
    <contour>
      <point x="333" y="146" type="line"/>
      <point x="666" y="146" type="line"/>
      <point x="666" y="186" type="line"/>
      <point x="333" y="186" type="line"/>
    </contour>
    <contour>
      <point x="480" y="146" type="line"/>
      <point x="520" y="146" type="line"/>
      <point x="520" y="333" type="line"/>
      <point x="480" y="333" type="line"/>
    </contour>
    <contour>
      <point x="1186" y="333" type="line"/>
      <point x="1146" y="333" type="line"/>
      <point x="1146" y="316" type="line"/>
      <point x="1315" y="146" type="line"/>
      <point x="1332" y="146" type="line"/>
      <point x="1332" y="186" type="line"/>
    </contour>
    <contour>
      <point x="1332" y="146" type="line"/>
      <point x="1518" y="146" type="line"/>
      <point x="1518" y="186" type="line"/>
      <point x="1332" y="186" type="line"/>
    </contour>
    <contour>
      <point x="480" y="333" type="line"/>
      <point x="520" y="333" type="line"/>
      <point x="520" y="666" type="line"/>
      <point x="480" y="666" type="line"/>
    </contour>
    <contour>
      <point x="480" y="480" type="line"/>
      <point x="666" y="480" type="line"/>
      <point x="666" y="520" type="line"/>
      <point x="480" y="520" type="line"/>
    </contour>
    <contour>
      <point x="666" y="480" type="line"/>
      <point x="999" y="480" type="line"/>
      <point x="999" y="520" type="line"/>
      <point x="666" y="520" type="line"/>
    </contour>
    <contour>
      <point x="1146" y="666" type="line"/>
      <point x="999" y="520" type="line"/>
      <point x="999" y="480" type="line"/>
      <point x="1016" y="480" type="line"/>
      <point x="1186" y="649" type="line"/>
      <point x="1186" y="666" type="line"/>
    </contour>
    <contour>
      <point x="1146" y="333" type="line"/>
      <point x="1186" y="333" type="line"/>
      <point x="1186" y="350" type="line"/>
      <point x="1016" y="520" type="line"/>
      <point x="999" y="520" type="line"/>
      <point x="999" y="480" type="line"/>
    </contour>
    <contour>
      <point x="333" y="812" type="line"/>
      <point x="666" y="812" type="line"/>
      <point x="666" y="852" type="line"/>
      <point x="333" y="852" type="line"/>
    </contour>
    <contour>
      <point x="480" y="666" type="line"/>
      <point x="520" y="666" type="line"/>
      <point x="520" y="852" type="line"/>
      <point x="480" y="852" type="line"/>
    </contour>
    <contour>
      <point x="1186" y="666" type="line"/>
      <point x="1332" y="812" type="line"/>
      <point x="1332" y="852" type="line"/>
      <point x="1315" y="852" type="line"/>
      <point x="1146" y="683" type="line"/>
      <point x="1146" y="666" type="line"/>
    </contour>
    <contour>
      <point x="1332" y="812" type="line"/>
      <point x="1518" y="812" type="line"/>
      <point x="1518" y="852" type="line"/>
      <point x="1332" y="852" type="line"/>
    </contour>
  </outline>
</glyph>
<glyph name="L.alt2" format="2">
  <advance width="1332"/>
  <outline>
    <contour>
      <point x="480" y="333" type="line"/>
      <point x="480" y="229"/>
      <point x="562" y="146"/>
      <point x="666" y="146" type="curve"/>
      <point x="666" y="186" type="line"/>
      <point x="584" y="186"/>
      <point x="520" y="251"/>
      <point x="520" y="333" type="curve"/>
    </contour>
    <contour>
      <point x="666" y="146" type="line"/>
      <point x="852" y="146" type="line"/>
      <point x="852" y="186" type="line"/>
      <point x="666" y="186" type="line"/>
    </contour>
    <contour>
      <point x="812" y="146" type="line"/>
      <point x="852" y="146" type="line"/>
      <point x="852" y="333" type="line"/>
      <point x="812" y="333" type="line"/>
    </contour>
    <contour>
      <point x="480" y="666" type="line"/>
      <point x="333" y="520" type="line"/>
      <point x="333" y="480" type="line"/>
      <point x="350" y="480" type="line"/>
      <point x="520" y="649" type="line"/>
      <point x="520" y="666" type="line"/>
    </contour>
    <contour>
      <point x="480" y="333" type="line"/>
      <point x="520" y="333" type="line"/>
      <point x="520" y="350" type="line"/>
      <point x="350" y="520" type="line"/>
      <point x="333" y="520" type="line"/>
      <point x="333" y="480" type="line"/>
    </contour>
    <contour>
      <point x="480" y="666" type="line"/>
      <point x="520" y="666" type="line"/>
      <point x="520" y="852" type="line"/>
      <point x="480" y="852" type="line"/>
    </contour>
  </outline>
</glyph>
<glyph name="L.alt3" format="2">
  <advance width="1665"/>
  <outline>
    <contour>
      <point x="333" y="146" type="line"/>
      <point x="666" y="146" type="line"/>
      <point x="666" y="186" type="line"/>
      <point x="333" y="186" type="line"/>
    </contour>
    <contour>
      <point x="480" y="146" type="line"/>
      <point x="520" y="146" type="line"/>
      <point x="520" y="333" type="line"/>
      <point x="480" y="333" type="line"/>
    </contour>
    <contour>
      <point x="666" y="146" type="line"/>
      <point x="999" y="146" type="line"/>
      <point x="999" y="186" type="line"/>
      <point x="666" y="186" type="line"/>
    </contour>
    <contour>
      <point x="999" y="146" type="line"/>
      <point x="1186" y="146" type="line"/>
      <point x="1186" y="186" type="line"/>
      <point x="999" y="186" type="line"/>
    </contour>
    <contour>
      <point x="1146" y="146" type="line"/>
      <point x="1186" y="146" type="line"/>
      <point x="1186" y="333" type="line"/>
      <point x="1146" y="333" type="line"/>
    </contour>
    <contour>
      <point x="520" y="666" type="line"/>
      <point x="480" y="666" type="line"/>
      <point x="480" y="649" type="line"/>
      <point x="649" y="480" type="line"/>
      <point x="666" y="480" type="line"/>
      <point x="666" y="520" type="line"/>
    </contour>
    <contour>
      <point x="520" y="333" type="line"/>
      <point x="666" y="480" type="line"/>
      <point x="666" y="520" type="line"/>
      <point x="649" y="520" type="line"/>
      <point x="480" y="350" type="line"/>
      <point x="480" y="333" type="line"/>
    </contour>
    <contour>
      <point x="1146" y="333" type="line"/>
      <point x="1186" y="333" type="line"/>
      <point x="1186" y="520" type="line"/>
      <point x="1146" y="520" type="line"/>
    </contour>
    <contour>
      <point x="333" y="812" type="line"/>
      <point x="666" y="812" type="line"/>
      <point x="666" y="852" type="line"/>
      <point x="333" y="852" type="line"/>
    </contour>
    <contour>
      <point x="480" y="666" type="line"/>
      <point x="520" y="666" type="line"/>
      <point x="520" y="852" type="line"/>
      <point x="480" y="852" type="line"/>
    </contour>
    <contour>
      <point x="666" y="812" type="line"/>
      <point x="852" y="812" type="line"/>
      <point x="852" y="852" type="line"/>
      <point x="666" y="852" type="line"/>
    </contour>
  </outline>
</glyph>
<glyph name="L.alt4" format="2">
  <advance width="1332"/>
  <outline>
    <contour>
      <point x="333" y="146" type="line"/>
      <point x="666" y="146" type="line"/>
      <point x="666" y="186" type="line"/>
      <point x="333" y="186" type="line"/>
    </contour>
    <contour>
      <point x="480" y="146" type="line"/>
      <point x="520" y="146" type="line"/>
      <point x="520" y="333" type="line"/>
      <point x="480" y="333" type="line"/>
    </contour>
    <contour>
      <point x="666" y="146" type="line"/>
      <point x="852" y="146" type="line"/>
      <point x="852" y="186" type="line"/>
      <point x="666" y="186" type="line"/>
    </contour>
    <contour>
      <point x="812" y="146" type="line"/>
      <point x="852" y="146" type="line"/>
      <point x="852" y="333" type="line"/>
      <point x="812" y="333" type="line"/>
    </contour>
    <contour>
      <point x="480" y="333" type="line"/>
      <point x="520" y="333" type="line"/>
      <point x="520" y="666" type="line"/>
      <point x="480" y="666" type="line"/>
    </contour>
    <contour>
      <point x="333" y="812" type="line"/>
      <point x="666" y="812" type="line"/>
      <point x="666" y="852" type="line"/>
      <point x="333" y="852" type="line"/>
    </contour>
    <contour>
      <point x="480" y="666" type="line"/>
      <point x="520" y="666" type="line"/>
      <point x="520" y="852" type="line"/>
      <point x="480" y="852" type="line"/>
    </contour>
  </outline>
</glyph>
<glyph name="M.alt2" format="2">
  <advance width="1998"/>
  <outline>
    <contour>
      <point x="333" y="146" type="line"/>
      <point x="520" y="146" type="line"/>
      <point x="520" y="186" type="line"/>
      <point x="333" y="186" type="line"/>
    </contour>
    <contour>
      <point x="480" y="146" type="line"/>
      <point x="520" y="146" type="line"/>
      <point x="520" y="333" type="line"/>
      <point x="480" y="333" type="line"/>
    </contour>
    <contour>
      <point x="812" y="333" type="line"/>
      <point x="812" y="229"/>
      <point x="895" y="146"/>
      <point x="999" y="146" type="curve"/>
      <point x="999" y="186" type="line"/>
      <point x="917" y="186"/>
      <point x="852" y="251"/>
      <point x="852" y="333" type="curve"/>
    </contour>
    <contour>
      <point x="1186" y="333" type="curve"/>
      <point x="1146" y="333" type="line"/>
      <point x="1146" y="251"/>
      <point x="1081" y="186"/>
      <point x="999" y="186" type="curve"/>
      <point x="999" y="146" type="line"/>
      <point x="1103" y="146"/>
      <point x="1186" y="229"/>
    </contour>
    <contour>
      <point x="1478" y="146" type="line"/>
      <point x="1665" y="146" type="line"/>
      <point x="1665" y="186" type="line"/>
      <point x="1478" y="186" type="line"/>
    </contour>
    <contour>
      <point x="1478" y="146" type="line"/>
      <point x="1518" y="146" type="line"/>
      <point x="1518" y="333" type="line"/>
      <point x="1478" y="333" type="line"/>
    </contour>
    <contour>
      <point x="480" y="333" type="line"/>
      <point x="520" y="333" type="line"/>
      <point x="520" y="666" type="line"/>
      <point x="480" y="666" type="line"/>
    </contour>
    <contour>
      <point x="812" y="333" type="line"/>
      <point x="852" y="333" type="line"/>
      <point x="852" y="666" type="line"/>
      <point x="812" y="666" type="line"/>
    </contour>
    <contour>
      <point x="1146" y="333" type="line"/>
      <point x="1186" y="333" type="line"/>
      <point x="1186" y="666" type="line"/>
      <point x="1146" y="666" type="line"/>
    </contour>
    <contour>
      <point x="1478" y="333" type="line"/>
      <point x="1518" y="333" type="line"/>
      <point x="1518" y="666" type="line"/>
      <point x="1478" y="666" type="line"/>
    </contour>
    <contour>
      <point x="480" y="666" type="curve"/>
      <point x="520" y="666" type="line"/>
      <point x="520" y="748"/>
      <point x="584" y="812"/>
      <point x="666" y="812" type="curve"/>
      <point x="666" y="852" type="line"/>
      <point x="562" y="852"/>
      <point x="480" y="770"/>
    </contour>
    <contour>
      <point x="852" y="666" type="line"/>
      <point x="852" y="770"/>
      <point x="770" y="852"/>
      <point x="666" y="852" type="curve"/>
      <point x="666" y="812" type="line"/>
      <point x="748" y="812"/>
      <point x="812" y="748"/>
      <point x="812" y="666" type="curve"/>
    </contour>
    <contour>
      <point x="1146" y="666" type="curve"/>
      <point x="1186" y="666" type="line"/>
      <point x="1186" y="748"/>
      <point x="1250" y="812"/>
      <point x="1332" y="812" type="curve"/>
      <point x="1332" y="852" type="line"/>
      <point x="1228" y="852"/>
      <point x="1146" y="770"/>
    </contour>
    <contour>
      <point x="1518" y="666" type="line"/>
      <point x="1518" y="770"/>
      <point x="1436" y="852"/>
      <point x="1332" y="852" type="curve"/>
      <point x="1332" y="812" type="line"/>
      <point x="1414" y="812"/>
      <point x="1478" y="748"/>
      <point x="1478" y="666" type="curve"/>
    </contour>
  </outline>
</glyph>
<glyph name="M.alt4" format="2">
  <advance width="1665"/>
  <outline>
    <contour>
      <point x="333" y="146" type="line"/>
      <point x="520" y="146" type="line"/>
      <point x="520" y="186" type="line"/>
      <point x="333" y="186" type="line"/>
    </contour>
    <contour>
      <point x="480" y="146" type="line"/>
      <point x="520" y="146" type="line"/>
      <point x="520" y="333" type="line"/>
      <point x="480" y="333" type="line"/>
    </contour>
    <contour>
      <point x="1146" y="146" type="line"/>
      <point x="1332" y="146" type="line"/>
      <point x="1332" y="186" type="line"/>
      <point x="1146" y="186" type="line"/>
    </contour>
    <contour>
      <point x="1146" y="146" type="line"/>
      <point x="1186" y="146" type="line"/>
      <point x="1186" y="333" type="line"/>
      <point x="1146" y="333" type="line"/>
    </contour>
    <contour>
      <point x="480" y="333" type="line"/>
      <point x="520" y="333" type="line"/>
      <point x="520" y="666" type="line"/>
      <point x="480" y="666" type="line"/>
    </contour>
    <contour>
      <point x="812" y="333" type="line"/>
      <point x="852" y="333" type="line"/>
      <point x="852" y="666" type="line"/>
      <point x="812" y="666" type="line"/>
    </contour>
    <contour>
      <point x="1146" y="333" type="line"/>
      <point x="1186" y="333" type="line"/>
      <point x="1186" y="666" type="line"/>
      <point x="1146" y="666" type="line"/>
    </contour>
    <contour>
      <point x="480" y="666" type="curve"/>
      <point x="520" y="666" type="line"/>
      <point x="520" y="748"/>
      <point x="584" y="812"/>
      <point x="666" y="812" type="curve"/>
      <point x="666" y="852" type="line"/>
      <point x="562" y="852"/>
      <point x="480" y="770"/>
    </contour>
    <contour>
      <point x="812" y="666" type="line"/>
      <point x="852" y="666" type="line"/>
      <point x="852" y="683" type="line"/>
      <point x="683" y="852" type="line"/>
      <point x="666" y="852" type="line"/>
      <point x="666" y="812" type="line"/>
    </contour>
    <contour>
      <point x="852" y="666" type="line"/>
      <point x="999" y="812" type="line"/>
      <point x="999" y="852" type="line"/>
      <point x="982" y="852" type="line"/>
      <point x="812" y="683" type="line"/>
      <point x="812" y="666" type="line"/>
    </contour>
    <contour>
      <point x="1186" y="666" type="line"/>
      <point x="1186" y="770"/>
      <point x="1103" y="852"/>
      <point x="999" y="852" type="curve"/>
      <point x="999" y="812" type="line"/>
      <point x="1081" y="812"/>
      <point x="1146" y="748"/>
      <point x="1146" y="666" type="curve"/>
    </contour>
  </outline>
</glyph>
<glyph name="N.alt2" format="2">
  <advance width="1665"/>
  <outline>
    <contour>
      <point x="333" y="146" type="line"/>
      <point x="666" y="146" type="line"/>
      <point x="666" y="186" type="line"/>
      <point x="333" y="186" type="line"/>
    </contour>
    <contour>
      <point x="480" y="146" type="line"/>
      <point x="520" y="146" type="line"/>
      <point x="520" y="333" type="line"/>
      <point x="480" y="333" type="line"/>
    </contour>
    <contour>
      <point x="999" y="146" type="line"/>
      <point x="1332" y="146" type="line"/>
      <point x="1332" y="186" type="line"/>
      <point x="999" y="186" type="line"/>
    </contour>
    <contour>
      <point x="1146" y="146" type="line"/>
      <point x="1186" y="146" type="line"/>
      <point x="1186" y="333" type="line"/>
      <point x="1146" y="333" type="line"/>
    </contour>
    <contour>
      <point x="480" y="333" type="line"/>
      <point x="520" y="333" type="line"/>
      <point x="520" y="666" type="line"/>
      <point x="480" y="666" type="line"/>
    </contour>
    <contour>
      <point x="480" y="480" type="line"/>
      <point x="666" y="480" type="line"/>
      <point x="666" y="520" type="line"/>
      <point x="480" y="520" type="line"/>
    </contour>
    <contour>
      <point x="852" y="666" type="curve"/>
      <point x="812" y="666" type="line"/>
      <point x="812" y="584"/>
      <point x="748" y="520"/>
      <point x="666" y="520" type="curve"/>
      <point x="666" y="480" type="line"/>
      <point x="770" y="480"/>
      <point x="852" y="562"/>
    </contour>
    <contour>
      <point x="1146" y="333" type="line"/>
      <point x="1186" y="333" type="line"/>
      <point x="1186" y="666" type="line"/>
      <point x="1146" y="666" type="line"/>
    </contour>
    <contour>
      <point x="333" y="812" type="line"/>
      <point x="520" y="812" type="line"/>
      <point x="520" y="852" type="line"/>
      <point x="333" y="852" type="line"/>
    </contour>
    <contour>
      <point x="480" y="666" type="line"/>
      <point x="520" y="666" type="line"/>
      <point x="520" y="852" type="line"/>
      <point x="480" y="852" type="line"/>
    </contour>
    <contour>
      <point x="812" y="666" type="curve"/>
      <point x="852" y="666" type="line"/>
      <point x="852" y="748"/>
      <point x="917" y="812"/>
      <point x="999" y="812" type="curve"/>
      <point x="999" y="852" type="line"/>
      <point x="895" y="852"/>
      <point x="812" y="770"/>
    </contour>
    <contour>
      <point x="1186" y="666" type="line"/>
      <point x="1186" y="770"/>
      <point x="1103" y="852"/>
      <point x="999" y="852" type="curve"/>
      <point x="999" y="812" type="line"/>
      <point x="1081" y="812"/>
      <point x="1146" y="748"/>
      <point x="1146" y="666" type="curve"/>
    </contour>
  </outline>
</glyph>
<glyph name="P.alt4" format="2">
  <advance width="1665"/>
  <outline>
    <contour>
      <point x="333" y="146" type="line"/>
      <point x="520" y="146" type="line"/>
      <point x="520" y="186" type="line"/>
      <point x="333" y="186" type="line"/>
    </contour>
    <contour>
      <point x="480" y="146" type="line"/>
      <point x="520" y="146" type="line"/>
      <point x="520" y="333" type="line"/>
      <point x="480" y="333" type="line"/>
    </contour>
    <contour>
      <point x="480" y="333" type="line"/>
      <point x="520" y="333" type="line"/>
      <point x="520" y="666" type="line"/>
      <point x="480" y="666" type="line"/>
    </contour>
    <contour>
      <point x="480" y="480" type="line"/>
      <point x="666" y="480" type="line"/>
      <point x="666" y="520" type="line"/>
      <point x="480" y="520" type="line"/>
    </contour>
    <contour>
      <point x="666" y="480" type="line"/>
      <point x="999" y="480" type="line"/>
      <point x="999" y="520" type="line"/>
      <point x="666" y="520" type="line"/>
    </contour>
    <contour>
      <point x="1146" y="666" type="line"/>
      <point x="999" y="520" type="line"/>
      <point x="999" y="480" type="line"/>
      <point x="1016" y="480" type="line"/>
      <point x="1186" y="649" type="line"/>
      <point x="1186" y="666" type="line"/>
    </contour>
    <contour>
      <point x="480" y="666" type="curve"/>
      <point x="520" y="666" type="line"/>
      <point x="520" y="748"/>
      <point x="584" y="812"/>
      <point x="666" y="812" type="curve"/>
      <point x="666" y="852" type="line"/>
      <point x="562" y="852"/>
      <point x="480" y="770"/>
    </contour>
    <contour>
      <point x="666" y="812" type="line"/>
      <point x="999" y="812" type="line"/>
      <point x="999" y="852" type="line"/>
      <point x="666" y="852" type="line"/>
    </contour>
    <contour>
      <point x="1146" y="666" type="line"/>
      <point x="1186" y="666" type="line"/>
      <point x="1186" y="683" type="line"/>
      <point x="1016" y="852" type="line"/>
      <point x="999" y="852" type="line"/>
      <point x="999" y="812" type="line"/>
    </contour>
  </outline>
</glyph>
<glyph name="R.alt2" format="2">
  <advance width="1665"/>
  <outline>
    <contour>
      <point x="480" y="146" type="line"/>
      <point x="520" y="146" type="line"/>
      <point x="520" y="333" type="line"/>
      <point x="480" y="333" type="line"/>
    </contour>
    <contour>
      <point x="812" y="333" type="line"/>
      <point x="812" y="229"/>
      <point x="895" y="146"/>
      <point x="999" y="146" type="curve"/>
      <point x="999" y="186" type="line"/>
      <point x="917" y="186"/>
      <point x="852" y="251"/>
      <point x="852" y="333" type="curve"/>
    </contour>
    <contour>
      <point x="480" y="333" type="line"/>
      <point x="520" y="333" type="line"/>
      <point x="520" y="666" type="line"/>
      <point x="480" y="666" type="line"/>
    </contour>
    <contour>
      <point x="480" y="480" type="line"/>
      <point x="666" y="480" type="line"/>
      <point x="666" y="520" type="line"/>
      <point x="480" y="520" type="line"/>
    </contour>
    <contour>
      <point x="812" y="333" type="line"/>
      <point x="852" y="333" type="line"/>
      <point x="852" y="350" type="line"/>
      <point x="683" y="520" type="line"/>
      <point x="666" y="520" type="line"/>
      <point x="666" y="480" type="line"/>
    </contour>
    <contour>
      <point x="852" y="333" type="line"/>
      <point x="999" y="480" type="line"/>
      <point x="999" y="520" type="line"/>
      <point x="982" y="520" type="line"/>
      <point x="812" y="350" type="line"/>
      <point x="812" y="333" type="line"/>
    </contour>
    <contour>
      <point x="1146" y="666" type="line"/>
      <point x="999" y="520" type="line"/>
      <point x="999" y="480" type="line"/>
      <point x="1016" y="480" type="line"/>
      <point x="1186" y="649" type="line"/>
      <point x="1186" y="666" type="line"/>
    </contour>
    <contour>
      <point x="480" y="812" type="line"/>
      <point x="666" y="812" type="line"/>
      <point x="666" y="852" type="line"/>
      <point x="480" y="852" type="line"/>
    </contour>
    <contour>
      <point x="480" y="666" type="line"/>
      <point x="520" y="666" type="line"/>
      <point x="520" y="852" type="line"/>
      <point x="480" y="852" type="line"/>
    </contour>
    <contour>
      <point x="812" y="666" type="line"/>
      <point x="852" y="666" type="line"/>
      <point x="852" y="683" type="line"/>
      <point x="683" y="852" type="line"/>
      <point x="666" y="852" type="line"/>
      <point x="666" y="812" type="line"/>
    </contour>
    <contour>
      <point x="852" y="666" type="line"/>
      <point x="999" y="812" type="line"/>
      <point x="999" y="852" type="line"/>
      <point x="982" y="852" type="line"/>
      <point x="812" y="683" type="line"/>
      <point x="812" y="666" type="line"/>
    </contour>
    <contour>
      <point x="1146" y="666" type="line"/>
      <point x="1186" y="666" type="line"/>
      <point x="1186" y="683" type="line"/>
      <point x="1016" y="852" type="line"/>
      <point x="999" y="852" type="line"/>
      <point x="999" y="812" type="line"/>
    </contour>
  </outline>
</glyph>
<glyph name="S.alt4" format="2">
  <advance width="1665"/>
  <outline>
    <contour>
      <point x="480" y="146" type="line"/>
      <point x="666" y="146" type="line"/>
      <point x="666" y="186" type="line"/>
      <point x="480" y="186" type="line"/>
    </contour>
    <contour>
      <point x="480" y="146" type="line"/>
      <point x="520" y="146" type="line"/>
      <point x="520" y="333" type="line"/>
      <point x="480" y="333" type="line"/>
    </contour>
    <contour>
      <point x="666" y="146" type="line"/>
      <point x="999" y="146" type="line"/>
      <point x="999" y="186" type="line"/>
      <point x="666" y="186" type="line"/>
    </contour>
    <contour>
      <point x="1146" y="333" type="line"/>
      <point x="999" y="186" type="line"/>
      <point x="999" y="146" type="line"/>
      <point x="1016" y="146" type="line"/>
      <point x="1186" y="316" type="line"/>
      <point x="1186" y="333" type="line"/>
    </contour>
    <contour>
      <point x="480" y="480" type="line"/>
      <point x="666" y="480" type="line"/>
      <point x="666" y="520" type="line"/>
      <point x="480" y="520" type="line"/>
    </contour>
    <contour>
      <point x="480" y="480" type="line"/>
      <point x="520" y="480" type="line"/>
      <point x="520" y="666" type="line"/>
      <point x="480" y="666" type="line"/>
    </contour>
    <contour>
      <point x="812" y="666" type="line"/>
      <point x="666" y="520" type="line"/>
      <point x="666" y="480" type="line"/>
      <point x="683" y="480" type="line"/>
      <point x="852" y="649" type="line"/>
      <point x="852" y="666" type="line"/>
    </contour>
    <contour>
      <point x="852" y="666" type="line"/>
      <point x="812" y="666" type="line"/>
      <point x="812" y="649" type="line"/>
      <point x="982" y="480" type="line"/>
      <point x="999" y="480" type="line"/>
      <point x="999" y="520" type="line"/>
    </contour>
    <contour>
      <point x="999" y="480" type="line"/>
      <point x="1186" y="480" type="line"/>
      <point x="1186" y="520" type="line"/>
      <point x="999" y="520" type="line"/>
    </contour>
    <contour>
      <point x="1146" y="333" type="line"/>
      <point x="1186" y="333" type="line"/>
      <point x="1186" y="520" type="line"/>
      <point x="1146" y="520" type="line"/>
    </contour>
    <contour>
      <point x="480" y="812" type="line"/>
      <point x="666" y="812" type="line"/>
      <point x="666" y="852" type="line"/>
      <point x="480" y="852" type="line"/>
    </contour>
    <contour>
      <point x="480" y="666" type="line"/>
      <point x="520" y="666" type="line"/>
      <point x="520" y="852" type="line"/>
      <point x="480" y="852" type="line"/>
    </contour>
    <contour>
      <point x="666" y="812" type="line"/>
      <point x="999" y="812" type="line"/>
      <point x="999" y="852" type="line"/>
      <point x="666" y="852" type="line"/>
    </contour>
    <contour>
      <point x="1146" y="666" type="line"/>
      <point x="1186" y="666" type="line"/>
      <point x="1186" y="683" type="line"/>
      <point x="1016" y="852" type="line"/>
      <point x="999" y="852" type="line"/>
      <point x="999" y="812" type="line"/>
    </contour>
  </outline>
</glyph>
<glyph name="T.alt2" format="2">
  <advance width="1665"/>
  <outline>
    <contour>
      <point x="666" y="146" type="line"/>
      <point x="999" y="146" type="line"/>
      <point x="999" y="186" type="line"/>
      <point x="666" y="186" type="line"/>
    </contour>
    <contour>
      <point x="812" y="146" type="line"/>
      <point x="852" y="146" type="line"/>
      <point x="852" y="333" type="line"/>
      <point x="812" y="333" type="line"/>
    </contour>
    <contour>
      <point x="812" y="333" type="line"/>
      <point x="852" y="333" type="line"/>
      <point x="852" y="666" type="line"/>
      <point x="812" y="666" type="line"/>
    </contour>
    <contour>
      <point x="480" y="666" type="curve"/>
      <point x="520" y="666" type="line"/>
      <point x="520" y="748"/>
      <point x="584" y="812"/>
      <point x="666" y="812" type="curve"/>
      <point x="666" y="852" type="line"/>
      <point x="562" y="852"/>
      <point x="480" y="770"/>
    </contour>
    <contour>
      <point x="666" y="812" type="line"/>
      <point x="999" y="812" type="line"/>
      <point x="999" y="852" type="line"/>
      <point x="666" y="852" type="line"/>
    </contour>
    <contour>
      <point x="812" y="666" type="line"/>
      <point x="852" y="666" type="line"/>
      <point x="852" y="852" type="line"/>
      <point x="812" y="852" type="line"/>
    </contour>
    <contour>
      <point x="1186" y="666" type="line"/>
      <point x="1186" y="770"/>
      <point x="1103" y="852"/>
      <point x="999" y="852" type="curve"/>
      <point x="999" y="812" type="line"/>
      <point x="1081" y="812"/>
      <point x="1146" y="748"/>
      <point x="1146" y="666" type="curve"/>
    </contour>
  </outline>
</glyph>
<glyph name="W.alt1" format="2">
  <advance width="1665"/>
  <outline>
    <contour>
      <point x="520" y="333" type="line"/>
      <point x="480" y="333" type="line"/>
      <point x="480" y="316" type="line"/>
      <point x="649" y="146" type="line"/>
      <point x="666" y="146" type="line"/>
      <point x="666" y="186" type="line"/>
    </contour>
    <contour>
      <point x="812" y="333" type="line"/>
      <point x="666" y="186" type="line"/>
      <point x="666" y="146" type="line"/>
      <point x="683" y="146" type="line"/>
      <point x="852" y="316" type="line"/>
      <point x="852" y="333" type="line"/>
    </contour>
    <contour>
      <point x="852" y="333" type="line"/>
      <point x="812" y="333" type="line"/>
      <point x="812" y="316" type="line"/>
      <point x="982" y="146" type="line"/>
      <point x="999" y="146" type="line"/>
      <point x="999" y="186" type="line"/>
    </contour>
    <contour>
      <point x="1146" y="333" type="line"/>
      <point x="999" y="186" type="line"/>
      <point x="999" y="146" type="line"/>
      <point x="1016" y="146" type="line"/>
      <point x="1186" y="316" type="line"/>
      <point x="1186" y="333" type="line"/>
    </contour>
    <contour>
      <point x="480" y="333" type="line"/>
      <point x="520" y="333" type="line"/>
      <point x="520" y="666" type="line"/>
      <point x="480" y="666" type="line"/>
    </contour>
    <contour>
      <point x="812" y="333" type="line"/>
      <point x="852" y="333" type="line"/>
      <point x="852" y="520" type="line"/>
      <point x="812" y="520" type="line"/>
    </contour>
    <contour>
      <point x="1146" y="333" type="line"/>
      <point x="1186" y="333" type="line"/>
      <point x="1186" y="666" type="line"/>
      <point x="1146" y="666" type="line"/>
    </contour>
    <contour>
      <point x="480" y="666" type="line"/>
      <point x="520" y="666" type="line"/>
      <point x="520" y="683" type="line"/>
      <point x="350" y="852" type="line"/>
      <point x="333" y="852" type="line"/>
      <point x="333" y="812" type="line"/>
    </contour>
    <contour>
      <point x="1146" y="666" type="line"/>
      <point x="1186" y="666" type="line"/>
      <point x="1186" y="683" type="line"/>
      <point x="1016" y="852" type="line"/>
      <point x="999" y="852" type="line"/>
      <point x="999" y="812" type="line"/>
    </contour>
  </outline>
</glyph>
<glyph name="X.alt1" format="2">
  <advance width="1665"/>
  <outline>
    <contour>
      <point x="480" y="333" type="line"/>
      <point x="333" y="186" type="line"/>
      <point x="333" y="146" type="line"/>
      <point x="350" y="146" type="line"/>
      <point x="520" y="316" type="line"/>
      <point x="520" y="333" type="line"/>
    </contour>
    <contour>
      <point x="1186" y="333" type="line"/>
      <point x="1146" y="333" type="line"/>
      <point x="1146" y="316" type="line"/>
      <point x="1315" y="146" type="line"/>
      <point x="1332" y="146" type="line"/>
      <point x="1332" y="186" type="line"/>
    </contour>
    <contour>
      <point x="520" y="666" type="line"/>
      <point x="480" y="666" type="line"/>
      <point x="480" y="649" type="line"/>
      <point x="649" y="480" type="line"/>
      <point x="666" y="480" type="line"/>
      <point x="666" y="520" type="line"/>
    </contour>
    <contour>
      <point x="520" y="333" type="line"/>
      <point x="666" y="480" type="line"/>
      <point x="666" y="520" type="line"/>
      <point x="649" y="520" type="line"/>
      <point x="480" y="350" type="line"/>
      <point x="480" y="333" type="line"/>
    </contour>
    <contour>
      <point x="666" y="480" type="line"/>
      <point x="999" y="480" type="line"/>
      <point x="999" y="520" type="line"/>
      <point x="666" y="520" type="line"/>
    </contour>
    <contour>
      <point x="1146" y="666" type="line"/>
      <point x="999" y="520" type="line"/>
      <point x="999" y="480" type="line"/>
      <point x="1016" y="480" type="line"/>
      <point x="1186" y="649" type="line"/>
      <point x="1186" y="666" type="line"/>
    </contour>
    <contour>
      <point x="1146" y="333" type="line"/>
      <point x="1186" y="333" type="line"/>
      <point x="1186" y="350" type="line"/>
      <point x="1016" y="520" type="line"/>
      <point x="999" y="520" type="line"/>
      <point x="999" y="480" type="line"/>
    </contour>
    <contour>
      <point x="480" y="666" type="line"/>
      <point x="520" y="666" type="line"/>
      <point x="520" y="683" type="line"/>
      <point x="350" y="852" type="line"/>
      <point x="333" y="852" type="line"/>
      <point x="333" y="812" type="line"/>
    </contour>
    <contour>
      <point x="1186" y="666" type="line"/>
      <point x="1332" y="812" type="line"/>
      <point x="1332" y="852" type="line"/>
      <point x="1315" y="852" type="line"/>
      <point x="1146" y="683" type="line"/>
      <point x="1146" y="666" type="line"/>
    </contour>
  </outline>
</glyph>
<glyph name="four.alt1" format="2">
  <advance width="1332"/>
  <outline>
    <contour>
      <point x="666" y="146" type="line"/>
      <point x="999" y="146" type="line"/>
      <point x="999" y="186" type="line"/>
      <point x="666" y="186" type="line"/>
    </contour>
    <contour>
      <point x="812" y="146" type="line"/>
      <point x="852" y="146" type="line"/>
      <point x="852" y="333" type="line"/>
      <point x="812" y="333" type="line"/>
    </contour>
    <contour>
      <point x="480" y="666" type="line"/>
      <point x="480" y="562"/>
      <point x="562" y="480"/>
      <point x="666" y="480" type="curve"/>
      <point x="666" y="520" type="line"/>
      <point x="584" y="520"/>
      <point x="520" y="584"/>
      <point x="520" y="666" type="curve"/>
    </contour>
    <contour>
      <point x="666" y="480" type="line"/>
      <point x="999" y="480" type="line"/>
      <point x="999" y="520" type="line"/>
      <point x="666" y="520" type="line"/>
    </contour>
    <contour>
      <point x="812" y="333" type="line"/>
      <point x="852" y="333" type="line"/>
      <point x="852" y="520" type="line"/>
      <point x="812" y="520" type="line"/>
    </contour>
    <contour>
      <point x="520" y="666" type="line"/>
      <point x="666" y="812" type="line"/>
      <point x="666" y="852" type="line"/>
      <point x="649" y="852" type="line"/>
      <point x="480" y="683" type="line"/>
      <point x="480" y="666" type="line"/>
    </contour>
  </outline>
</glyph>
<glyph name="one.alt3" format="2">
  <advance width="1332"/>
  <outline>
    <contour>
      <point x="666" y="146" type="line"/>
      <point x="999" y="146" type="line"/>
      <point x="999" y="186" type="line"/>
      <point x="666" y="186" type="line"/>
    </contour>
    <contour>
      <point x="812" y="146" type="line"/>
      <point x="852" y="146" type="line"/>
      <point x="852" y="333" type="line"/>
      <point x="812" y="333" type="line"/>
    </contour>
    <contour>
      <point x="812" y="333" type="line"/>
      <point x="852" y="333" type="line"/>
      <point x="852" y="666" type="line"/>
      <point x="812" y="666" type="line"/>
    </contour>
    <contour>
      <point x="480" y="666" type="curve"/>
      <point x="520" y="666" type="line"/>
      <point x="520" y="748"/>
      <point x="584" y="812"/>
      <point x="666" y="812" type="curve"/>
      <point x="666" y="852" type="line"/>
      <point x="562" y="852"/>
      <point x="480" y="770"/>
    </contour>
    <contour>
      <point x="812" y="666" type="line"/>
      <point x="852" y="666" type="line"/>
      <point x="852" y="683" type="line"/>
      <point x="683" y="852" type="line"/>
      <point x="666" y="852" type="line"/>
      <point x="666" y="812" type="line"/>
    </contour>
  </outline>
</glyph>
<glyph name="six.alt1" format="2">
  <advance width="1332"/>
  <outline>
    <contour>
      <point x="480" y="333" type="line"/>
      <point x="480" y="229"/>
      <point x="562" y="146"/>
      <point x="666" y="146" type="curve"/>
      <point x="666" y="186" type="line"/>
      <point x="584" y="186"/>
      <point x="520" y="251"/>
      <point x="520" y="333" type="curve"/>
    </contour>
    <contour>
      <point x="852" y="333" type="curve"/>
      <point x="812" y="333" type="line"/>
      <point x="812" y="251"/>
      <point x="748" y="186"/>
      <point x="666" y="186" type="curve"/>
      <point x="666" y="146" type="line"/>
      <point x="770" y="146"/>
      <point x="852" y="229"/>
    </contour>
    <contour>
      <point x="480" y="333" type="line"/>
      <point x="520" y="333" type="line"/>
      <point x="520" y="666" type="line"/>
      <point x="480" y="666" type="line"/>
    </contour>
    <contour>
      <point x="480" y="480" type="line"/>
      <point x="666" y="480" type="line"/>
      <point x="666" y="520" type="line"/>
      <point x="480" y="520" type="line"/>
    </contour>
    <contour>
      <point x="852" y="333" type="line"/>
      <point x="852" y="437"/>
      <point x="770" y="520"/>
      <point x="666" y="520" type="curve"/>
      <point x="666" y="480" type="line"/>
      <point x="748" y="480"/>
      <point x="812" y="415"/>
      <point x="812" y="333" type="curve"/>
    </contour>
    <contour>
      <point x="480" y="666" type="curve"/>
      <point x="520" y="666" type="line"/>
      <point x="520" y="748"/>
      <point x="584" y="812"/>
      <point x="666" y="812" type="curve"/>
      <point x="666" y="852" type="line"/>
      <point x="562" y="852"/>
      <point x="480" y="770"/>
    </contour>
    <contour>
      <point x="852" y="666" type="line"/>
      <point x="852" y="770"/>
      <point x="770" y="852"/>
      <point x="666" y="852" type="curve"/>
      <point x="666" y="812" type="line"/>
      <point x="748" y="812"/>
      <point x="812" y="748"/>
      <point x="812" y="666" type="curve"/>
    </contour>
  </outline>
</glyph>
<glyph name="three.alt3" format="2">
  <advance width="1665"/>
  <outline>
    <contour>
      <point x="480" y="333" type="line"/>
      <point x="480" y="229"/>
      <point x="562" y="146"/>
      <point x="666" y="146" type="curve"/>
      <point x="666" y="186" type="line"/>
      <point x="584" y="186"/>
      <point x="520" y="251"/>
      <point x="520" y="333" type="curve"/>
    </contour>
    <contour>
      <point x="812" y="333" type="line"/>
      <point x="666" y="186" type="line"/>
      <point x="666" y="146" type="line"/>
      <point x="683" y="146" type="line"/>
      <point x="852" y="316" type="line"/>
      <point x="852" y="333" type="line"/>
    </contour>
    <contour>
      <point x="852" y="333" type="line"/>
      <point x="812" y="333" type="line"/>
      <point x="812" y="316" type="line"/>
      <point x="982" y="146" type="line"/>
      <point x="999" y="146" type="line"/>
      <point x="999" y="186" type="line"/>
    </contour>
    <contour>
      <point x="1146" y="333" type="line"/>
      <point x="999" y="186" type="line"/>
      <point x="999" y="146" type="line"/>
      <point x="1016" y="146" type="line"/>
      <point x="1186" y="316" type="line"/>
      <point x="1186" y="333" type="line"/>
    </contour>
    <contour>
      <point x="1146" y="666" type="line"/>
      <point x="999" y="520" type="line"/>
      <point x="999" y="480" type="line"/>
      <point x="1016" y="480" type="line"/>
      <point x="1186" y="649" type="line"/>
      <point x="1186" y="666" type="line"/>
    </contour>
    <contour>
      <point x="1146" y="333" type="line"/>
      <point x="1186" y="333" type="line"/>
      <point x="1186" y="350" type="line"/>
      <point x="1016" y="520" type="line"/>
      <point x="999" y="520" type="line"/>
      <point x="999" y="480" type="line"/>
    </contour>
    <contour>
      <point x="480" y="666" type="curve"/>
      <point x="520" y="666" type="line"/>
      <point x="520" y="748"/>
      <point x="584" y="812"/>
      <point x="666" y="812" type="curve"/>
      <point x="666" y="852" type="line"/>
      <point x="562" y="852"/>
      <point x="480" y="770"/>
    </contour>
    <contour>
      <point x="812" y="666" type="line"/>
      <point x="852" y="666" type="line"/>
      <point x="852" y="683" type="line"/>
      <point x="683" y="852" type="line"/>
      <point x="666" y="852" type="line"/>
      <point x="666" y="812" type="line"/>
    </contour>
    <contour>
      <point x="852" y="666" type="line"/>
      <point x="999" y="812" type="line"/>
      <point x="999" y="852" type="line"/>
      <point x="982" y="852" type="line"/>
      <point x="812" y="683" type="line"/>
      <point x="812" y="666" type="line"/>
    </contour>
    <contour>
      <point x="1146" y="666" type="line"/>
      <point x="1186" y="666" type="line"/>
      <point x="1186" y="683" type="line"/>
      <point x="1016" y="852" type="line"/>
      <point x="999" y="852" type="line"/>
      <point x="999" y="812" type="line"/>
    </contour>
  </outline>
</glyph>
<glyph name="two.alt1" format="2">
  <advance width="1665"/>
  <outline>
    <contour>
      <point x="480" y="333" type="line"/>
      <point x="480" y="229"/>
      <point x="562" y="146"/>
      <point x="666" y="146" type="curve"/>
      <point x="666" y="186" type="line"/>
      <point x="584" y="186"/>
      <point x="520" y="251"/>
      <point x="520" y="333" type="curve"/>
    </contour>
    <contour>
      <point x="666" y="146" type="line"/>
      <point x="999" y="146" type="line"/>
      <point x="999" y="186" type="line"/>
      <point x="666" y="186" type="line"/>
    </contour>
    <contour>
      <point x="1146" y="0" type="line"/>
      <point x="1186" y="0" type="line"/>
      <point x="1186" y="333" type="line"/>
      <point x="1146" y="333" type="line"/>
    </contour>
    <contour>
      <point x="999" y="146" type="line"/>
      <point x="1186" y="146" type="line"/>
      <point x="1186" y="186" type="line"/>
      <point x="999" y="186" type="line"/>
    </contour>
    <contour>
      <point x="480" y="333" type="curve"/>
      <point x="520" y="333" type="line"/>
      <point x="520" y="415"/>
      <point x="584" y="480"/>
      <point x="666" y="480" type="curve"/>
      <point x="666" y="520" type="line"/>
      <point x="562" y="520"/>
      <point x="480" y="437"/>
    </contour>
    <contour>
      <point x="666" y="480" type="line"/>
      <point x="852" y="480" type="line"/>
      <point x="852" y="520" type="line"/>
      <point x="666" y="520" type="line"/>
    </contour>
    <contour>
      <point x="1186" y="666" type="curve"/>
      <point x="1146" y="666" type="line"/>
      <point x="1146" y="584"/>
      <point x="1081" y="520"/>
      <point x="999" y="520" type="curve"/>
      <point x="999" y="480" type="line"/>
      <point x="1103" y="480"/>
      <point x="1186" y="562"/>
    </contour>
    <contour>
      <point x="480" y="666" type="curve"/>
      <point x="520" y="666" type="line"/>
      <point x="520" y="748"/>
      <point x="584" y="812"/>
      <point x="666" y="812" type="curve"/>
      <point x="666" y="852" type="line"/>
      <point x="562" y="852"/>
      <point x="480" y="770"/>
    </contour>
    <contour>
      <point x="666" y="812" type="line"/>
      <point x="999" y="812" type="line"/>
      <point x="999" y="852" type="line"/>
      <point x="666" y="852" type="line"/>
    </contour>
    <contour>
      <point x="1146" y="666" type="line"/>
      <point x="1186" y="666" type="line"/>
      <point x="1186" y="999" type="line"/>
      <point x="1146" y="999" type="line"/>
    </contour>
    <contour>
      <point x="999" y="812" type="line"/>
      <point x="1186" y="812" type="line"/>
      <point x="1186" y="852" type="line"/>
      <point x="999" y="852" type="line"/>
    </contour>
  </outline>
</glyph>
<glyph name="two.alt8" format="2">
  <advance width="1665"/>
  <outline>
    <contour>
      <point x="520" y="333" type="line"/>
      <point x="480" y="333" type="line"/>
      <point x="480" y="316" type="line"/>
      <point x="649" y="146" type="line"/>
      <point x="666" y="146" type="line"/>
      <point x="666" y="186" type="line"/>
    </contour>
    <contour>
      <point x="666" y="146" type="line"/>
      <point x="999" y="146" type="line"/>
      <point x="999" y="186" type="line"/>
      <point x="666" y="186" type="line"/>
    </contour>
    <contour>
      <point x="1146" y="0" type="line"/>
      <point x="1186" y="0" type="line"/>
      <point x="1186" y="333" type="line"/>
      <point x="1146" y="333" type="line"/>
    </contour>
    <contour>
      <point x="999" y="146" type="line"/>
      <point x="1186" y="146" type="line"/>
      <point x="1186" y="186" type="line"/>
      <point x="999" y="186" type="line"/>
    </contour>
    <contour>
      <point x="520" y="333" type="line"/>
      <point x="666" y="480" type="line"/>
      <point x="666" y="520" type="line"/>
      <point x="649" y="520" type="line"/>
      <point x="480" y="350" type="line"/>
      <point x="480" y="333" type="line"/>
    </contour>
    <contour>
      <point x="666" y="480" type="line"/>
      <point x="852" y="480" type="line"/>
      <point x="852" y="520" type="line"/>
      <point x="666" y="520" type="line"/>
    </contour>
    <contour>
      <point x="1146" y="666" type="line"/>
      <point x="999" y="520" type="line"/>
      <point x="999" y="480" type="line"/>
      <point x="1016" y="480" type="line"/>
      <point x="1186" y="649" type="line"/>
      <point x="1186" y="666" type="line"/>
    </contour>
    <contour>
      <point x="480" y="666" type="line"/>
      <point x="520" y="666" type="line"/>
      <point x="520" y="999" type="line"/>
      <point x="480" y="999" type="line"/>
    </contour>
    <contour>
      <point x="480" y="812" type="line"/>
      <point x="666" y="812" type="line"/>
      <point x="666" y="852" type="line"/>
      <point x="480" y="852" type="line"/>
    </contour>
    <contour>
      <point x="666" y="812" type="line"/>
      <point x="999" y="812" type="line"/>
      <point x="999" y="852" type="line"/>
      <point x="666" y="852" type="line"/>
    </contour>
    <contour>
      <point x="1146" y="666" type="line"/>
      <point x="1186" y="666" type="line"/>
      <point x="1186" y="683" type="line"/>
      <point x="1016" y="852" type="line"/>
      <point x="999" y="852" type="line"/>
      <point x="999" y="812" type="line"/>
    </contour>
  </outline>
</glyph>
